<svg version="1.1" viewBox="0.0 0.0 405.0 250.0" fill="none" stroke="none" stroke-linecap="square" stroke-miterlimit="10" width="405" height="250" xmlns:xlink="http://www.w3.org/1999/xlink" xmlns="http://www.w3.org/2000/svg"><path fill="#ffffff" d="M0 0L405.0 0L405.0 250.0L0 250.0L0 0Z" fill-rule="nonzero"/><path fill="#fbbc04" d="M121.16308 89.54868C138.83408 61.703655 169.52107 44.833332 202.5 44.833332L202.5 141.16667Z" fill-rule="nonzero"/><path fill="#ea4335" d="M110.88155 111.39803C113.37873 103.7125 116.83304 96.371735 121.16308 89.54868L202.5 141.16667Z" fill-rule="nonzero"/><path fill="#4285f4" d="M202.5 44.833332C244.23413 44.833332 281.2219 71.70651 294.11844 111.39803C307.015 151.08954 292.88693 194.57126 259.12332 219.10197C225.3597 243.63268 179.6403 243.63268 145.8767 219.10197C112.11307 194.57126 97.985 151.08954 110.88155 111.39803L202.5 141.16667Z" fill-rule="nonzero"/><path fill="#1a1a1a" d="M13.484375 56.47L13.484375 47.87625L19.28125 47.87625L19.28125 48.891876L14.625 48.891876L14.625 51.548126L18.65625 51.548126L18.65625 52.56375L14.625 52.56375L14.625 56.47L13.484375 56.47ZM19.90625 53.360626Q19.90625 51.62625 20.859375 50.798126Q21.65625 50.110626 22.8125 50.110626Q24.09375 50.110626 24.90625 50.954376Q25.734375 51.7825 25.734375 53.266876Q25.734375 54.47 25.375 55.1575Q25.015625 55.845 24.3125 56.235626Q23.625 56.610626 22.8125 56.610626Q21.515625 56.610626 20.703125 55.7825Q19.90625 54.93875 19.90625 53.360626ZM20.984375 53.360626Q20.984375 54.548126 21.5 55.141876Q22.03125 55.735626 22.8125 55.735626Q23.609375 55.735626 24.125 55.141876Q24.640625 54.548126 24.640625 53.329376Q24.640625 52.173126 24.109375 51.579376Q23.59375 50.985626 22.8125 50.985626Q22.03125 50.985626 21.5 51.579376Q20.984375 52.1575 20.984375 53.360626ZM26.90625 53.360626Q26.90625 51.62625 27.859375 50.798126Q28.65625 50.110626 29.8125 50.110626Q31.09375 50.110626 31.90625 50.954376Q32.734375 51.7825 32.734375 53.266876Q32.734375 54.47 32.375 55.1575Q32.015625 55.845 31.3125 56.235626Q30.625 56.610626 29.8125 56.610626Q28.515625 56.610626 27.703125 55.7825Q26.90625 54.93875 26.90625 53.360626ZM27.984375 53.360626Q27.984375 54.548126 28.5 55.141876Q29.03125 55.735626 29.8125 55.735626Q30.609375 55.735626 31.125 55.141876Q31.640625 54.548126 31.640625 53.329376Q31.640625 52.173126 31.109375 51.579376Q30.59375 50.985626 29.8125 50.985626Q29.03125 50.985626 28.5 51.579376Q27.984375 52.1575 27.984375 53.360626ZM38.328125 56.47L38.328125 55.68875Q37.734375 56.610626 36.59375 56.610626Q35.84375 56.610626 35.21875 56.204376Q34.59375 55.7825 34.25 55.048126Q33.90625 54.31375 33.90625 53.360626Q33.90625 52.43875 34.21875 51.673126Q34.53125 50.9075 35.15625 50.516876Q35.78125 50.110626 36.546875 50.110626Q37.109375 50.110626 37.546875 50.345Q37.984375 50.579376 38.265625 50.954376L38.265625 47.87625L39.3125 47.87625L39.3125 56.47L38.328125 56.47ZM35.0 53.360626Q35.0 54.56375 35.5 55.1575Q36.0 55.735626 36.6875 55.735626Q37.375 55.735626 37.859375 55.173126Q38.34375 54.610626 38.34375 53.454376Q38.34375 52.173126 37.84375 51.579376Q37.359375 50.985626 36.640625 50.985626Q35.9375 50.985626 35.46875 51.56375Q35.0 52.12625 35.0 53.360626ZM46.5 55.079376L46.5 52.72L44.171875 52.72L44.171875 51.735626L46.5 51.735626L46.5 49.4075L47.5 49.4075L47.5 51.735626L49.84375 51.735626L49.84375 52.72L47.5 52.72L47.5 55.079376L46.5 55.079376ZM54.421875 56.47L54.421875 47.87625L57.390625 47.87625Q58.390625 47.87625 58.921875 48.00125Q59.65625 48.173126 60.171875 48.610626Q60.859375 49.18875 61.1875 50.095Q61.53125 50.985626 61.53125 52.12625Q61.53125 53.110626 61.296875 53.860626Q61.078125 54.610626 60.71875 55.110626Q60.359375 55.610626 59.921875 55.891876Q59.5 56.173126 58.90625 56.329376Q58.3125 56.47 57.53125 56.47L54.421875 56.47ZM55.5625 55.454376L57.390625 55.454376Q58.25 55.454376 58.734375 55.298126Q59.21875 55.141876 59.5 54.845Q59.90625 54.454376 60.125 53.766876Q60.359375 53.079376 60.359375 52.110626Q60.359375 50.766876 59.90625 50.048126Q59.46875 49.31375 58.84375 49.06375Q58.375 48.891876 57.375 48.891876L55.5625 48.891876L55.5625 55.454376ZM63.28125 56.47L63.28125 50.25125L64.234375 50.25125L64.234375 51.18875Q64.59375 50.5325 64.890625 50.329376Q65.203125 50.110626 65.578125 50.110626Q66.109375 50.110626 66.65625 50.43875L66.296875 51.423126Q65.90625 51.18875 65.53125 51.18875Q65.171875 51.18875 64.890625 51.4075Q64.625 51.610626 64.515625 51.985626Q64.328125 52.548126 64.328125 53.204376L64.328125 56.47L63.28125 56.47ZM67.296875 49.095L67.296875 47.87625L68.359375 47.87625L68.359375 49.095L67.296875 49.095ZM67.296875 56.47L67.296875 50.25125L68.359375 50.25125L68.359375 56.47L67.296875 56.47ZM70.296875 56.47L70.296875 50.25125L71.234375 50.25125L71.234375 51.12625Q71.921875 50.110626 73.21875 50.110626Q73.78125 50.110626 74.25 50.31375Q74.734375 50.516876 74.96875 50.845Q75.203125 51.173126 75.296875 51.610626Q75.34375 51.9075 75.34375 52.641876L75.34375 56.47L74.296875 56.47L74.296875 52.68875Q74.296875 52.0325 74.171875 51.72Q74.046875 51.4075 73.734375 51.22Q73.421875 51.016876 73.0 51.016876Q72.328125 51.016876 71.828125 51.454376Q71.34375 51.87625 71.34375 53.06375L71.34375 56.47L70.296875 56.47ZM77.296875 56.47L77.296875 47.87625L78.359375 47.87625L78.359375 52.7825L80.84375 50.25125L82.21875 50.25125L79.828125 52.548126L82.453125 56.47L81.15625 56.47L79.09375 53.2825L78.359375 54.00125L78.359375 56.47L77.296875 56.47Z" fill-rule="nonzero"/><path fill="#9e9e9e" d="M16.96875 73.47L15.921875 73.47L15.921875 66.75125Q15.53125 67.11063 14.90625 67.48563Q14.296875 67.845 13.8125 68.01688L13.8125 67.00125Q14.6875 66.57938 15.34375 66.00125Q16.015625 65.4075 16.296875 64.845L16.96875 64.845L16.96875 73.47ZM25.46875 66.98563L24.421875 67.06375Q24.28125 66.43875 24.03125 66.1575Q23.59375 65.70438 22.96875 65.70438Q22.46875 65.70438 22.078125 65.98563Q21.59375 66.36063 21.296875 67.06375Q21.015625 67.75125 21.0 69.0325Q21.375 68.45438 21.921875 68.17313Q22.484375 67.89188 23.09375 67.89188Q24.140625 67.89188 24.875 68.67313Q25.625 69.45438 25.625 70.67313Q25.625 71.48563 25.265625 72.18875Q24.921875 72.87625 24.3125 73.25125Q23.703125 73.61063 22.9375 73.61063Q21.609375 73.61063 20.78125 72.64188Q19.953125 71.67313 19.953125 69.45438Q19.953125 66.95438 20.875 65.82938Q21.671875 64.845 23.03125 64.845Q24.046875 64.845 24.6875 65.42313Q25.34375 65.98563 25.46875 66.98563ZM21.171875 70.68875Q21.171875 71.23563 21.390625 71.73563Q21.625 72.22 22.03125 72.48563Q22.453125 72.75125 22.921875 72.75125Q23.578125 72.75125 24.0625 72.22Q24.546875 71.67313 24.546875 70.75125Q24.546875 69.86063 24.0625 69.345Q23.59375 68.82938 22.875 68.82938Q22.15625 68.82938 21.65625 69.345Q21.171875 69.86063 21.171875 70.68875ZM27.59375 73.47L27.59375 72.26688L28.796875 72.26688L28.796875 73.47L27.59375 73.47ZM30.0 69.23563Q30.0 67.70438 30.3125 66.7825Q30.625 65.845 31.234375 65.345Q31.859375 64.845 32.796875 64.845Q33.484375 64.845 34.0 65.12625Q34.53125 65.4075 34.875 65.93875Q35.21875 66.45438 35.40625 67.20438Q35.59375 67.95438 35.59375 69.23563Q35.59375 70.75125 35.28125 71.67313Q34.984375 72.595 34.359375 73.11063Q33.75 73.61063 32.796875 73.61063Q31.5625 73.61063 30.84375 72.72Q30.0 71.6575 30.0 69.23563ZM31.078125 69.23563Q31.078125 71.345 31.578125 72.04813Q32.078125 72.75125 32.796875 72.75125Q33.53125 72.75125 34.015625 72.04813Q34.515625 71.345 34.515625 69.23563Q34.515625 67.11063 34.015625 66.42313Q33.53125 65.72 32.78125 65.72Q32.0625 65.72 31.625 66.32938Q31.078125 67.11063 31.078125 69.23563ZM37.203125 66.93875Q37.203125 66.01688 37.65625 65.37625Q38.125 64.73563 39.0 64.73563Q39.8125 64.73563 40.34375 65.31375Q40.875 65.89188 40.875 67.00125Q40.875 68.095 40.328125 68.68875Q39.796875 69.26688 39.015625 69.26688Q38.234375 69.26688 37.71875 68.68875Q37.203125 68.11063 37.203125 66.93875ZM39.03125 65.45438Q38.640625 65.45438 38.375 65.79813Q38.125 66.14188 38.125 67.04813Q38.125 67.87625 38.375 68.22Q38.640625 68.54813 39.03125 68.54813Q39.4375 68.54813 39.6875 68.20438Q39.953125 67.86063 39.953125 66.97Q39.953125 66.12625 39.6875 65.79813Q39.421875 65.45438 39.03125 65.45438ZM39.03125 73.7825L43.734375 64.73563L44.59375 64.73563L39.90625 73.7825L39.03125 73.7825ZM42.75 71.45438Q42.75 70.5325 43.203125 69.89188Q43.671875 69.25125 44.5625 69.25125Q45.375 69.25125 45.90625 69.82938Q46.4375 70.39188 46.4375 71.51688Q46.4375 72.61063 45.890625 73.20438Q45.359375 73.7825 44.5625 73.7825Q43.796875 73.7825 43.265625 73.20438Q42.75 72.62625 42.75 71.45438ZM44.59375 69.97Q44.1875 69.97 43.921875 70.31375Q43.671875 70.6575 43.671875 71.56375Q43.671875 72.37625 43.9375 72.72Q44.203125 73.06375 44.59375 73.06375Q44.984375 73.06375 45.25 72.72Q45.515625 72.37625 45.515625 71.47Q45.515625 70.64188 45.25 70.31375Q44.984375 69.97 44.59375 69.97Z" fill-rule="nonzero"/><path stroke="#757575" stroke-width="1.0" stroke-linecap="butt" d="M12.5 60.97L100.166664 60.97L158.41151 60.97" fill-rule="nonzero"/><path fill="#9e9e9e" d="M160.41151 60.97C160.41151 59.86543 159.51608 58.97 158.41151 58.97C157.30695 58.97 156.41151 59.86543 156.41151 60.97C156.41151 62.07457 157.30695 62.97 158.41151 62.97C159.51608 62.97 160.41151 62.07457 160.41151 60.97" fill-rule="nonzero"/><path fill="#1a1a1a" d="M13.484375 97.70077L13.484375 89.10702L19.28125 89.10702L19.28125 90.12264L14.625 90.12264L14.625 92.77889L18.65625 92.77889L18.65625 93.79452L14.625 93.79452L14.625 97.70077L13.484375 97.70077ZM19.90625 94.59139Q19.90625 92.85702 20.859375 92.02889Q21.65625 91.34139 22.8125 91.34139Q24.09375 91.34139 24.90625 92.18514Q25.734375 93.01327 25.734375 94.49764Q25.734375 95.70077 25.375 96.38827Q25.015625 97.07577 24.3125 97.46639Q23.625 97.84139 22.8125 97.84139Q21.515625 97.84139 20.703125 97.01327Q19.90625 96.16952 19.90625 94.59139ZM20.984375 94.59139Q20.984375 95.77889 21.5 96.37264Q22.03125 96.96639 22.8125 96.96639Q23.609375 96.96639 24.125 96.37264Q24.640625 95.77889 24.640625 94.56014Q24.640625 93.40389 24.109375 92.81014Q23.59375 92.21639 22.8125 92.21639Q22.03125 92.21639 21.5 92.81014Q20.984375 93.38827 20.984375 94.59139ZM26.90625 94.59139Q26.90625 92.85702 27.859375 92.02889Q28.65625 91.34139 29.8125 91.34139Q31.09375 91.34139 31.90625 92.18514Q32.734375 93.01327 32.734375 94.49764Q32.734375 95.70077 32.375 96.38827Q32.015625 97.07577 31.3125 97.46639Q30.625 97.84139 29.8125 97.84139Q28.515625 97.84139 27.703125 97.01327Q26.90625 96.16952 26.90625 94.59139ZM27.984375 94.59139Q27.984375 95.77889 28.5 96.37264Q29.03125 96.96639 29.8125 96.96639Q30.609375 96.96639 31.125 96.37264Q31.640625 95.77889 31.640625 94.56014Q31.640625 93.40389 31.109375 92.81014Q30.59375 92.21639 29.8125 92.21639Q29.03125 92.21639 28.5 92.81014Q27.984375 93.38827 27.984375 94.59139ZM38.328125 97.70077L38.328125 96.91952Q37.734375 97.84139 36.59375 97.84139Q35.84375 97.84139 35.21875 97.43514Q34.59375 97.01327 34.25 96.27889Q33.90625 95.54452 33.90625 94.59139Q33.90625 93.66952 34.21875 92.90389Q34.53125 92.13827 35.15625 91.74764Q35.78125 91.34139 36.546875 91.34139Q37.109375 91.34139 37.546875 91.57577Q37.984375 91.81014 38.265625 92.18514L38.265625 89.10702L39.3125 89.10702L39.3125 97.70077L38.328125 97.70077ZM35.0 94.59139Q35.0 95.79452 35.5 96.38827Q36.0 96.96639 36.6875 96.96639Q37.375 96.96639 37.859375 96.40389Q38.34375 95.84139 38.34375 94.68514Q38.34375 93.40389 37.84375 92.81014Q37.359375 92.21639 36.640625 92.21639Q35.9375 92.21639 35.46875 92.79452Q35.0 93.35702 35.0 94.59139ZM44.078125 93.51327Q44.078125 91.37264 45.21875 90.16952Q46.375 88.95077 48.1875 88.95077Q49.390625 88.95077 50.34375 89.52889Q51.296875 90.09139 51.796875 91.10702Q52.296875 92.12264 52.296875 93.41952Q52.296875 94.71639 51.765625 95.74764Q51.234375 96.77889 50.265625 97.31014Q49.3125 97.84139 48.1875 97.84139Q46.96875 97.84139 46.015625 97.26327Q45.0625 96.66952 44.5625 95.66952Q44.078125 94.65389 44.078125 93.51327ZM45.25 93.52889Q45.25 95.09139 46.078125 95.98202Q46.921875 96.87264 48.1875 96.87264Q49.46875 96.87264 50.296875 95.98202Q51.125 95.07577 51.125 93.40389Q51.125 92.35702 50.765625 91.57577Q50.421875 90.79452 49.734375 90.37264Q49.046875 89.93514 48.203125 89.93514Q47.0 89.93514 46.125 90.76327Q45.25 91.59139 45.25 93.52889ZM53.296875 97.70077L53.296875 91.48202L54.234375 91.48202L54.234375 92.35702Q54.921875 91.34139 56.21875 91.34139Q56.78125 91.34139 57.25 91.54452Q57.734375 91.74764 57.96875 92.07577Q58.203125 92.40389 58.296875 92.84139Q58.34375 93.13827 58.34375 93.87264L58.34375 97.70077L57.296875 97.70077L57.296875 93.91952Q57.296875 93.26327 57.171875 92.95077Q57.046875 92.63827 56.734375 92.45077Q56.421875 92.24764 56.0 92.24764Q55.328125 92.24764 54.828125 92.68514Q54.34375 93.10702 54.34375 94.29452L54.34375 97.70077L53.296875 97.70077ZM60.265625 97.70077L60.265625 89.10702L61.328125 89.10702L61.328125 97.70077L60.265625 97.70077ZM63.25 100.09139L63.125 99.10702Q63.46875 99.20077 63.734375 99.20077Q64.078125 99.20077 64.28125 99.07577Q64.5 98.96639 64.640625 98.76327Q64.734375 98.59139 64.96875 97.96639Q64.984375 97.88827 65.0625 97.71639L62.6875 91.48202L63.828125 91.48202L65.125 95.07577Q65.375 95.76327 65.578125 96.52889Q65.765625 95.79452 66.015625 95.10702L67.34375 91.48202L68.390625 91.48202L66.03125 97.81014Q65.640625 98.82577 65.4375 99.21639Q65.15625 99.74764 64.78125 99.98202Q64.421875 100.23202 63.921875 100.23202Q63.625 100.23202 63.25 100.09139Z" fill-rule="nonzero"/><path fill="#9e9e9e" d="M16.375 114.70077L16.375 112.63827L12.65625 112.63827L12.65625 111.66952L16.578125 106.10702L17.4375 106.10702L17.4375 111.66952L18.59375 111.66952L18.59375 112.63827L17.4375 112.63827L17.4375 114.70077L16.375 114.70077ZM16.375 111.66952L16.375 107.81014L13.6875 111.66952L16.375 111.66952ZM20.59375 114.70077L20.59375 113.49764L21.796875 113.49764L21.796875 114.70077L20.59375 114.70077ZM23.0 110.46639Q23.0 108.93514 23.3125 108.01327Q23.625 107.07577 24.234375 106.57577Q24.859375 106.07577 25.796875 106.07577Q26.484375 106.07577 27.0 106.35702Q27.53125 106.63827 27.875 107.16952Q28.21875 107.68514 28.40625 108.43514Q28.59375 109.18514 28.59375 110.46639Q28.59375 111.98202 28.28125 112.90389Q27.984375 113.82577 27.359375 114.34139Q26.75 114.84139 25.796875 114.84139Q24.5625 114.84139 23.84375 113.95077Q23.0 112.88827 23.0 110.46639ZM24.078125 110.46639Q24.078125 112.57577 24.578125 113.27889Q25.078125 113.98202 25.796875 113.98202Q26.53125 113.98202 27.015625 113.27889Q27.515625 112.57577 27.515625 110.46639Q27.515625 108.34139 27.015625 107.65389Q26.53125 106.95077 25.78125 106.95077Q25.0625 106.95077 24.625 107.56014Q24.078125 108.34139 24.078125 110.46639ZM30.203125 108.16952Q30.203125 107.24764 30.65625 106.60702Q31.125 105.96639 32.0 105.96639Q32.8125 105.96639 33.34375 106.54452Q33.875 107.12264 33.875 108.23202Q33.875 109.32577 33.328125 109.91952Q32.796875 110.49764 32.015625 110.49764Q31.234375 110.49764 30.71875 109.91952Q30.203125 109.34139 30.203125 108.16952ZM32.03125 106.68514Q31.640625 106.68514 31.375 107.02889Q31.125 107.37264 31.125 108.27889Q31.125 109.10702 31.375 109.45077Q31.640625 109.77889 32.03125 109.77889Q32.4375 109.77889 32.6875 109.43514Q32.953125 109.09139 32.953125 108.20077Q32.953125 107.35702 32.6875 107.02889Q32.421875 106.68514 32.03125 106.68514ZM32.03125 115.01327L36.734375 105.96639L37.59375 105.96639L32.90625 115.01327L32.03125 115.01327ZM35.75 112.68514Q35.75 111.76327 36.203125 111.12264Q36.671875 110.48202 37.5625 110.48202Q38.375 110.48202 38.90625 111.06014Q39.4375 111.62264 39.4375 112.74764Q39.4375 113.84139 38.890625 114.43514Q38.359375 115.01327 37.5625 115.01327Q36.796875 115.01327 36.265625 114.43514Q35.75 113.85702 35.75 112.68514ZM37.59375 111.20077Q37.1875 111.20077 36.921875 111.54452Q36.671875 111.88827 36.671875 112.79452Q36.671875 113.60702 36.9375 113.95077Q37.203125 114.29452 37.59375 114.29452Q37.984375 114.29452 38.25 113.95077Q38.515625 113.60702 38.515625 112.70077Q38.515625 111.87264 38.25 111.54452Q37.984375 111.20077 37.59375 111.20077Z" fill-rule="nonzero"/><path stroke="#757575" stroke-width="1.0" stroke-linecap="butt" d="M12.5 102.20077L100.166664 102.20077L119.693245 102.20077" fill-rule="nonzero"/><path fill="#9e9e9e" d="M121.693245 102.20077C121.693245 101.0962 120.79781 100.20077 119.693245 100.20077C118.58868 100.20077 117.693245 101.0962 117.693245 102.20077C117.693245 103.305336 118.58868 104.20077 119.693245 104.20077C120.79781 104.20077 121.693245 103.305336 121.693245 102.20077" fill-rule="nonzero"/><path fill="#1a1a1a" d="M336.42188 210.7052L336.42188 202.11145L339.39062 202.11145Q340.39062 202.11145 340.92188 202.23645Q341.65625 202.40833 342.17188 202.84583Q342.85938 203.42395 343.1875 204.3302Q343.53125 205.22083 343.53125 206.36145Q343.53125 207.34583 343.29688 208.09583Q343.07812 208.84583 342.71875 209.34583Q342.35938 209.84583 341.92188 210.12708Q341.5 210.40833 340.90625 210.56458Q340.3125 210.7052 339.53125 210.7052L336.42188 210.7052ZM337.5625 209.68958L339.39062 209.68958Q340.25 209.68958 340.73438 209.53333Q341.21875 209.37708 341.5 209.0802Q341.90625 208.68958 342.125 208.00208Q342.35938 207.31458 342.35938 206.34583Q342.35938 205.00208 341.90625 204.28333Q341.46875 203.54895 340.84375 203.29895Q340.375 203.12708 339.375 203.12708L337.5625 203.12708L337.5625 209.68958ZM345.28125 210.7052L345.28125 204.48645L346.23438 204.48645L346.23438 205.42395Q346.59375 204.7677 346.89062 204.56458Q347.20312 204.34583 347.57812 204.34583Q348.10938 204.34583 348.65625 204.67395L348.29688 205.65833Q347.90625 205.42395 347.53125 205.42395Q347.17188 205.42395 346.89062 205.6427Q346.625 205.84583 346.51562 206.22083Q346.32812 206.78333 346.32812 207.43958L346.32812 210.7052L345.28125 210.7052ZM349.29688 203.3302L349.29688 202.11145L350.35938 202.11145L350.35938 203.3302L349.29688 203.3302ZM349.29688 210.7052L349.29688 204.48645L350.35938 204.48645L350.35938 210.7052L349.29688 210.7052ZM352.29688 210.7052L352.29688 204.48645L353.23438 204.48645L353.23438 205.36145Q353.92188 204.34583 355.21875 204.34583Q355.78125 204.34583 356.25 204.54895Q356.73438 204.75208 356.96875 205.0802Q357.20312 205.40833 357.29688 205.84583Q357.34375 206.1427 357.34375 206.87708L357.34375 210.7052L356.29688 210.7052L356.29688 206.92395Q356.29688 206.2677 356.17188 205.9552Q356.04688 205.6427 355.73438 205.4552Q355.42188 205.25208 355.0 205.25208Q354.32812 205.25208 353.82812 205.68958Q353.34375 206.11145 353.34375 207.29895L353.34375 210.7052L352.29688 210.7052ZM359.29688 210.7052L359.29688 202.11145L360.35938 202.11145L360.35938 207.0177L362.84375 204.48645L364.21875 204.48645L361.82812 206.78333L364.45312 210.7052L363.15625 210.7052L361.09375 207.5177L360.35938 208.23645L360.35938 210.7052L359.29688 210.7052ZM368.07812 206.5177Q368.07812 204.37708 369.21875 203.17395Q370.375 201.9552 372.1875 201.9552Q373.39062 201.9552 374.34375 202.53333Q375.29688 203.09583 375.79688 204.11145Q376.29688 205.12708 376.29688 206.42395Q376.29688 207.72083 375.76562 208.75208Q375.23438 209.78333 374.26562 210.31458Q373.3125 210.84583 372.1875 210.84583Q370.96875 210.84583 370.01562 210.2677Q369.0625 209.67395 368.5625 208.67395Q368.07812 207.65833 368.07812 206.5177ZM369.25 206.53333Q369.25 208.09583 370.07812 208.98645Q370.92188 209.87708 372.1875 209.87708Q373.46875 209.87708 374.29688 208.98645Q375.125 208.0802 375.125 206.40833Q375.125 205.36145 374.76562 204.5802Q374.42188 203.79895 373.73438 203.37708Q373.04688 202.93958 372.20312 202.93958Q371.0 202.93958 370.125 203.7677Q369.25 204.59583 369.25 206.53333ZM377.29688 210.7052L377.29688 204.48645L378.23438 204.48645L378.23438 205.36145Q378.92188 204.34583 380.21875 204.34583Q380.78125 204.34583 381.25 204.54895Q381.73438 204.75208 381.96875 205.0802Q382.20312 205.40833 382.29688 205.84583Q382.34375 206.1427 382.34375 206.87708L382.34375 210.7052L381.29688 210.7052L381.29688 206.92395Q381.29688 206.2677 381.17188 205.9552Q381.04688 205.6427 380.73438 205.4552Q380.42188 205.25208 380.0 205.25208Q379.32812 205.25208 378.82812 205.68958Q378.34375 206.11145 378.34375 207.29895L378.34375 210.7052L377.29688 210.7052ZM384.26562 210.7052L384.26562 202.11145L385.32812 202.11145L385.32812 210.7052L384.26562 210.7052ZM387.25 213.09583L387.125 212.11145Q387.46875 212.2052 387.73438 212.2052Q388.07812 212.2052 388.28125 212.0802Q388.5 211.97083 388.64062 211.7677Q388.73438 211.59583 388.96875 210.97083Q388.98438 210.8927 389.0625 210.72083L386.6875 204.48645L387.82812 204.48645L389.125 208.0802Q389.375 208.7677 389.57812 209.53333Q389.76562 208.79895 390.01562 208.11145L391.34375 204.48645L392.39062 204.48645L390.03125 210.81458Q389.64062 211.8302 389.4375 212.22083Q389.15625 212.75208 388.78125 212.98645Q388.42188 213.23645 387.92188 213.23645Q387.625 213.23645 387.25 213.09583Z" fill-rule="nonzero"/><path fill="#9e9e9e" d="M359.625 223.04895Q358.96875 222.79895 358.64062 222.36145Q358.32812 221.90833 358.32812 221.29895Q358.32812 220.36145 359.0 219.72083Q359.6875 219.0802 360.79688 219.0802Q361.92188 219.0802 362.60938 219.73645Q363.29688 220.3927 363.29688 221.3302Q363.29688 221.92395 362.98438 222.36145Q362.67188 222.79895 362.03125 223.04895Q362.82812 223.29895 363.23438 223.87708Q363.64062 224.4552 363.64062 225.25208Q363.64062 226.34583 362.85938 227.09583Q362.09375 227.84583 360.8125 227.84583Q359.54688 227.84583 358.76562 227.09583Q357.98438 226.34583 357.98438 225.22083Q357.98438 224.37708 358.40625 223.81458Q358.84375 223.25208 359.625 223.04895ZM359.40625 221.25208Q359.40625 221.86145 359.79688 222.25208Q360.20312 222.6427 360.82812 222.6427Q361.4375 222.6427 361.82812 222.2677Q362.21875 221.87708 362.21875 221.31458Q362.21875 220.73645 361.8125 220.34583Q361.40625 219.93958 360.8125 219.93958Q360.20312 219.93958 359.79688 220.3302Q359.40625 220.72083 359.40625 221.25208ZM359.07812 225.22083Q359.07812 225.67395 359.28125 226.09583Q359.5 226.5177 359.92188 226.75208Q360.34375 226.98645 360.82812 226.98645Q361.57812 226.98645 362.0625 226.50208Q362.5625 226.0177 362.5625 225.2677Q362.5625 224.50208 362.0625 224.00208Q361.5625 223.50208 360.79688 223.50208Q360.04688 223.50208 359.5625 224.00208Q359.07812 224.48645 359.07812 225.22083ZM365.0 223.47083Q365.0 221.93958 365.3125 221.0177Q365.625 220.0802 366.23438 219.5802Q366.85938 219.0802 367.79688 219.0802Q368.48438 219.0802 369.0 219.36145Q369.53125 219.6427 369.875 220.17395Q370.21875 220.68958 370.40625 221.43958Q370.59375 222.18958 370.59375 223.47083Q370.59375 224.98645 370.28125 225.90833Q369.98438 226.8302 369.35938 227.34583Q368.75 227.84583 367.79688 227.84583Q366.5625 227.84583 365.84375 226.9552Q365.0 225.8927 365.0 223.47083ZM366.07812 223.47083Q366.07812 225.5802 366.57812 226.28333Q367.07812 226.98645 367.79688 226.98645Q368.53125 226.98645 369.01562 226.28333Q369.51562 225.5802 369.51562 223.47083Q369.51562 221.34583 369.01562 220.65833Q368.53125 219.9552 367.78125 219.9552Q367.0625 219.9552 366.625 220.56458Q366.07812 221.34583 366.07812 223.47083ZM372.59375 227.7052L372.59375 226.50208L373.79688 226.50208L373.79688 227.7052L372.59375 227.7052ZM375.0 223.47083Q375.0 221.93958 375.3125 221.0177Q375.625 220.0802 376.23438 219.5802Q376.85938 219.0802 377.79688 219.0802Q378.48438 219.0802 379.0 219.36145Q379.53125 219.6427 379.875 220.17395Q380.21875 220.68958 380.40625 221.43958Q380.59375 222.18958 380.59375 223.47083Q380.59375 224.98645 380.28125 225.90833Q379.98438 226.8302 379.35938 227.34583Q378.75 227.84583 377.79688 227.84583Q376.5625 227.84583 375.84375 226.9552Q375.0 225.8927 375.0 223.47083ZM376.07812 223.47083Q376.07812 225.5802 376.57812 226.28333Q377.07812 226.98645 377.79688 226.98645Q378.53125 226.98645 379.01562 226.28333Q379.51562 225.5802 379.51562 223.47083Q379.51562 221.34583 379.01562 220.65833Q378.53125 219.9552 377.78125 219.9552Q377.0625 219.9552 376.625 220.56458Q376.07812 221.34583 376.07812 223.47083ZM382.20312 221.17395Q382.20312 220.25208 382.65625 219.61145Q383.125 218.97083 384.0 218.97083Q384.8125 218.97083 385.34375 219.54895Q385.875 220.12708 385.875 221.23645Q385.875 222.3302 385.32812 222.92395Q384.79688 223.50208 384.01562 223.50208Q383.23438 223.50208 382.71875 222.92395Q382.20312 222.34583 382.20312 221.17395ZM384.03125 219.68958Q383.64062 219.68958 383.375 220.03333Q383.125 220.37708 383.125 221.28333Q383.125 222.11145 383.375 222.4552Q383.64062 222.78333 384.03125 222.78333Q384.4375 222.78333 384.6875 222.43958Q384.95312 222.09583 384.95312 221.2052Q384.95312 220.36145 384.6875 220.03333Q384.42188 219.68958 384.03125 219.68958ZM384.03125 228.0177L388.73438 218.97083L389.59375 218.97083L384.90625 228.0177L384.03125 228.0177ZM387.75 225.68958Q387.75 224.7677 388.20312 224.12708Q388.67188 223.48645 389.5625 223.48645Q390.375 223.48645 390.90625 224.06458Q391.4375 224.62708 391.4375 225.75208Q391.4375 226.84583 390.89062 227.43958Q390.35938 228.0177 389.5625 228.0177Q388.79688 228.0177 388.26562 227.43958Q387.75 226.86145 387.75 225.68958ZM389.59375 224.2052Q389.1875 224.2052 388.92188 224.54895Q388.67188 224.8927 388.67188 225.79895Q388.67188 226.61145 388.9375 226.9552Q389.20312 227.29895 389.59375 227.29895Q389.98438 227.29895 390.25 226.9552Q390.51562 226.61145 390.51562 225.7052Q390.51562 224.87708 390.25 224.54895Q389.98438 224.2052 389.59375 224.2052Z" fill-rule="nonzero"/><path stroke="#757575" stroke-width="1.0" stroke-linecap="butt" d="M392.5 215.2052L304.83334 215.2052L256.29214 215.2052" fill-rule="nonzero"/><path fill="#9e9e9e" d="M258.29214 215.2052C258.29214 214.10063 257.39673 213.2052 256.29214 213.2052C255.18758 213.2052 254.29214 214.10063 254.29214 215.2052C254.29214 216.30977 255.18758 217.2052 256.29214 217.2052C257.39673 217.2052 258.29214 216.30977 258.29214 215.2052" fill-rule="nonzero"/><path fill="#757575" d="M13.96875 31.5L13.96875 17.1875L19.34375 17.1875Q20.984375 17.1875 21.96875 17.625Q22.953125 18.046875 23.515625 18.953125Q24.078125 19.859375 24.078125 20.84375Q24.078125 21.765625 23.578125 22.578125Q23.09375 23.390625 22.078125 23.875Q23.375 24.265625 24.078125 25.1875Q24.78125 26.09375 24.78125 27.34375Q24.78125 28.359375 24.34375 29.21875Q23.921875 30.078125 23.296875 30.546875Q22.671875 31.015625 21.734375 31.265625Q20.796875 31.5 19.421875 31.5L13.96875 31.5ZM15.859375 23.203125L18.953125 23.203125Q20.21875 23.203125 20.765625 23.03125Q21.484375 22.8125 21.84375 22.328125Q22.21875 21.828125 22.21875 21.0625Q22.21875 20.359375 21.875 19.8125Q21.53125 19.265625 20.890625 19.078125Q20.265625 18.875 18.71875 18.875L15.859375 18.875L15.859375 23.203125ZM15.859375 29.8125L19.421875 29.8125Q20.34375 29.8125 20.71875 29.734375Q21.375 29.625 21.8125 29.359375Q22.25 29.078125 22.53125 28.5625Q22.8125 28.03125 22.8125 27.34375Q22.8125 26.546875 22.40625 25.953125Q22.0 25.359375 21.265625 25.125Q20.53125 24.890625 19.171875 24.890625L15.859375 24.890625L15.859375 29.8125ZM33.59375 30.21875Q32.609375 31.046875 31.703125 31.390625Q30.796875 31.734375 29.765625 31.734375Q28.0625 31.734375 27.140625 30.90625Q26.21875 30.0625 26.21875 28.765625Q26.21875 28.0 26.5625 27.375Q26.921875 26.75 27.484375 26.375Q28.046875 25.984375 28.75 25.78125Q29.265625 25.65625 30.3125 25.515625Q32.4375 25.265625 33.4375 24.921875Q33.453125 24.5625 33.453125 24.453125Q33.453125 23.390625 32.953125 22.9375Q32.28125 22.34375 30.953125 22.34375Q29.703125 22.34375 29.109375 22.78125Q28.53125 23.21875 28.25 24.328125L26.53125 24.09375Q26.765625 22.984375 27.296875 22.3125Q27.828125 21.625 28.84375 21.265625Q29.859375 20.890625 31.203125 20.890625Q32.53125 20.890625 33.359375 21.203125Q34.1875 21.515625 34.578125 22.0Q34.96875 22.46875 35.125 23.1875Q35.21875 23.640625 35.21875 24.8125L35.21875 27.15625Q35.21875 29.609375 35.328125 30.265625Q35.4375 30.90625 35.78125 31.5L33.9375 31.5Q33.671875 30.953125 33.59375 30.21875ZM33.4375 26.296875Q32.484375 26.6875 30.5625 26.953125Q29.484375 27.109375 29.03125 27.3125Q28.59375 27.5 28.34375 27.875Q28.09375 28.25 28.09375 28.71875Q28.09375 29.421875 28.625 29.890625Q29.15625 30.359375 30.1875 30.359375Q31.203125 30.359375 31.984375 29.921875Q32.78125 29.46875 33.15625 28.703125Q33.4375 28.09375 33.4375 26.9375L33.4375 26.296875ZM37.109375 28.40625L38.859375 28.125Q39.0 29.171875 39.671875 29.734375Q40.34375 30.28125 41.546875 30.28125Q42.75 30.28125 43.328125 29.796875Q43.921875 29.296875 43.921875 28.640625Q43.921875 28.046875 43.40625 27.703125Q43.046875 27.46875 41.609375 27.109375Q39.671875 26.609375 38.921875 26.265625Q38.1875 25.90625 37.796875 25.28125Q37.40625 24.640625 37.40625 23.875Q37.40625 23.1875 37.71875 22.59375Q38.046875 22.0 38.59375 21.609375Q39.0 21.3125 39.703125 21.109375Q40.421875 20.890625 41.234375 20.890625Q42.453125 20.890625 43.375 21.25Q44.296875 21.59375 44.734375 22.203125Q45.171875 22.796875 45.34375 23.796875L43.625 24.03125Q43.5 23.234375 42.9375 22.796875Q42.375 22.34375 41.359375 22.34375Q40.140625 22.34375 39.625 22.75Q39.109375 23.140625 39.109375 23.671875Q39.109375 24.015625 39.328125 24.296875Q39.53125 24.578125 40.0 24.765625Q40.265625 24.859375 41.546875 25.203125Q43.421875 25.703125 44.15625 26.03125Q44.890625 26.34375 45.3125 26.953125Q45.734375 27.546875 45.734375 28.453125Q45.734375 29.328125 45.21875 30.109375Q44.703125 30.890625 43.734375 31.3125Q42.765625 31.734375 41.546875 31.734375Q39.53125 31.734375 38.46875 30.890625Q37.40625 30.046875 37.109375 28.40625ZM47.828125 31.5L47.828125 17.1875L49.59375 17.1875L49.59375 25.34375L53.75 21.125L56.015625 21.125L52.0625 24.96875L56.421875 31.5L54.25 31.5L50.828125 26.203125L49.59375 27.390625L49.59375 31.5L47.828125 31.5ZM64.921875 28.15625L66.734375 28.390625Q66.3125 29.96875 65.140625 30.859375Q63.984375 31.734375 62.171875 31.734375Q59.90625 31.734375 58.5625 30.34375Q57.234375 28.9375 57.234375 26.40625Q57.234375 23.78125 58.578125 22.34375Q59.921875 20.890625 62.078125 20.890625Q64.15625 20.890625 65.46875 22.3125Q66.796875 23.71875 66.796875 26.296875Q66.796875 26.453125 66.78125 26.765625L59.046875 26.765625Q59.140625 28.46875 60.015625 29.375Q60.890625 30.28125 62.1875 30.28125Q63.15625 30.28125 63.828125 29.78125Q64.515625 29.265625 64.921875 28.15625ZM59.140625 25.3125L64.9375 25.3125Q64.828125 24.015625 64.28125 23.359375Q63.4375 22.34375 62.09375 22.34375Q60.890625 22.34375 60.0625 23.15625Q59.234375 23.953125 59.140625 25.3125ZM72.65625 29.921875L72.90625 31.484375Q72.171875 31.640625 71.578125 31.640625Q70.625 31.640625 70.09375 31.34375Q69.578125 31.03125 69.359375 30.546875Q69.140625 30.046875 69.140625 28.46875L69.140625 22.5L67.859375 22.5L67.859375 21.125L69.140625 21.125L69.140625 18.5625L70.890625 17.5L70.890625 21.125L72.65625 21.125L72.65625 22.5L70.890625 22.5L70.890625 28.5625Q70.890625 29.3125 70.984375 29.53125Q71.078125 29.734375 71.28125 29.875Q71.5 30.0 71.890625 30.0Q72.171875 30.0 72.65625 29.921875ZM91.265625 26.484375L93.15625 26.953125Q92.5625 29.296875 91.015625 30.53125Q89.46875 31.75 87.21875 31.75Q84.90625 31.75 83.453125 30.8125Q82.015625 29.859375 81.25 28.078125Q80.5 26.28125 80.5 24.234375Q80.5 22.0 81.34375 20.34375Q82.203125 18.671875 83.78125 17.8125Q85.359375 16.9375 87.25 16.9375Q89.40625 16.9375 90.859375 18.03125Q92.328125 19.125 92.90625 21.109375L91.046875 21.546875Q90.546875 19.984375 89.59375 19.28125Q88.65625 18.5625 87.21875 18.5625Q85.5625 18.5625 84.453125 19.359375Q83.34375 20.140625 82.890625 21.484375Q82.453125 22.8125 82.453125 24.21875Q82.453125 26.046875 82.984375 27.421875Q83.515625 28.78125 84.640625 29.453125Q85.765625 30.125 87.0625 30.125Q88.65625 30.125 89.765625 29.203125Q90.875 28.28125 91.265625 26.484375ZM94.171875 26.3125Q94.171875 23.4375 95.765625 22.046875Q97.109375 20.890625 99.03125 20.890625Q101.171875 20.890625 102.515625 22.296875Q103.875 23.703125 103.875 26.171875Q103.875 28.171875 103.28125 29.328125Q102.6875 30.46875 101.53125 31.109375Q100.390625 31.734375 99.03125 31.734375Q96.84375 31.734375 95.5 30.34375Q94.171875 28.9375 94.171875 26.3125ZM95.96875 26.3125Q95.96875 28.3125 96.828125 29.296875Q97.703125 30.28125 99.03125 30.28125Q100.34375 30.28125 101.203125 29.296875Q102.078125 28.296875 102.078125 26.25Q102.078125 24.328125 101.203125 23.34375Q100.328125 22.34375 99.03125 22.34375Q97.703125 22.34375 96.828125 23.34375Q95.96875 24.328125 95.96875 26.3125ZM105.8125 31.5L105.8125 21.125L107.390625 21.125L107.390625 22.578125Q107.875 21.828125 108.6875 21.359375Q109.5 20.890625 110.53125 20.890625Q111.6875 20.890625 112.421875 21.375Q113.15625 21.84375 113.46875 22.703125Q114.703125 20.890625 116.671875 20.890625Q118.21875 20.890625 119.046875 21.75Q119.875 22.609375 119.875 24.375L119.875 31.5L118.125 31.5L118.125 24.96875Q118.125 23.90625 117.953125 23.453125Q117.78125 22.984375 117.328125 22.703125Q116.890625 22.421875 116.28125 22.421875Q115.1875 22.421875 114.453125 23.15625Q113.734375 23.875 113.734375 25.46875L113.734375 31.5L111.984375 31.5L111.984375 24.765625Q111.984375 23.59375 111.546875 23.015625Q111.125 22.421875 110.140625 22.421875Q109.40625 22.421875 108.765625 22.8125Q108.140625 23.203125 107.859375 23.953125Q107.578125 24.703125 107.578125 26.125L107.578125 31.5L105.8125 31.5ZM122.8125 35.46875L122.8125 21.125L124.421875 21.125L124.421875 22.46875Q124.984375 21.6875 125.6875 21.296875Q126.40625 20.890625 127.421875 20.890625Q128.75 20.890625 129.76562 21.578125Q130.78125 22.265625 131.29688 23.515625Q131.82812 24.75 131.82812 26.234375Q131.82812 27.828125 131.25 29.109375Q130.6875 30.375 129.59375 31.0625Q128.5 31.734375 127.296875 31.734375Q126.421875 31.734375 125.71875 31.359375Q125.03125 30.984375 124.578125 30.421875L124.578125 35.46875L122.8125 35.46875ZM124.40625 26.375Q124.40625 28.375 125.21875 29.328125Q126.03125 30.28125 127.1875 30.28125Q128.35938 30.28125 129.1875 29.296875Q130.03125 28.3125 130.03125 26.21875Q130.03125 24.25 129.20312 23.265625Q128.39062 22.265625 127.265625 22.265625Q126.140625 22.265625 125.265625 23.328125Q124.40625 24.375 124.40625 26.375ZM133.17188 26.3125Q133.17188 23.4375 134.76562 22.046875Q136.10938 20.890625 138.03125 20.890625Q140.17188 20.890625 141.51562 22.296875Q142.875 23.703125 142.875 26.171875Q142.875 28.171875 142.28125 29.328125Q141.6875 30.46875 140.53125 31.109375Q139.39062 31.734375 138.03125 31.734375Q135.84375 31.734375 134.5 30.34375Q133.17188 28.9375 133.17188 26.3125ZM134.96875 26.3125Q134.96875 28.3125 135.82812 29.296875Q136.70312 30.28125 138.03125 30.28125Q139.34375 30.28125 140.20312 29.296875Q141.07812 28.296875 141.07812 26.25Q141.07812 24.328125 140.20312 23.34375Q139.32812 22.34375 138.03125 22.34375Q136.70312 22.34375 135.82812 23.34375Q134.96875 24.328125 134.96875 26.3125ZM144.10938 28.40625L145.85938 28.125Q146.0 29.171875 146.67188 29.734375Q147.34375 30.28125 148.54688 30.28125Q149.75 30.28125 150.32812 29.796875Q150.92188 29.296875 150.92188 28.640625Q150.92188 28.046875 150.40625 27.703125Q150.04688 27.46875 148.60938 27.109375Q146.67188 26.609375 145.92188 26.265625Q145.1875 25.90625 144.79688 25.28125Q144.40625 24.640625 144.40625 23.875Q144.40625 23.1875 144.71875 22.59375Q145.04688 22.0 145.59375 21.609375Q146.0 21.3125 146.70312 21.109375Q147.42188 20.890625 148.23438 20.890625Q149.45312 20.890625 150.375 21.25Q151.29688 21.59375 151.73438 22.203125Q152.17188 22.796875 152.34375 23.796875L150.625 24.03125Q150.5 23.234375 149.9375 22.796875Q149.375 22.34375 148.35938 22.34375Q147.14062 22.34375 146.625 22.75Q146.10938 23.140625 146.10938 23.671875Q146.10938 24.015625 146.32812 24.296875Q146.53125 24.578125 147.0 24.765625Q147.26562 24.859375 148.54688 25.203125Q150.42188 25.703125 151.15625 26.03125Q151.89062 26.34375 152.3125 26.953125Q152.73438 27.546875 152.73438 28.453125Q152.73438 29.328125 152.21875 30.109375Q151.70312 30.890625 150.73438 31.3125Q149.76562 31.734375 148.54688 31.734375Q146.53125 31.734375 145.46875 30.890625Q144.40625 30.046875 144.10938 28.40625ZM154.82812 19.203125L154.82812 17.1875L156.59375 17.1875L156.59375 19.203125L154.82812 19.203125ZM154.82812 31.5L154.82812 21.125L156.59375 21.125L156.59375 31.5L154.82812 31.5ZM162.65625 29.921875L162.90625 31.484375Q162.17188 31.640625 161.57812 31.640625Q160.625 31.640625 160.09375 31.34375Q159.57812 31.03125 159.35938 30.546875Q159.14062 30.046875 159.14062 28.46875L159.14062 22.5L157.85938 22.5L157.85938 21.125L159.14062 21.125L159.14062 18.5625L160.89062 17.5L160.89062 21.125L162.65625 21.125L162.65625 22.5L160.89062 22.5L160.89062 28.5625Q160.89062 29.3125 160.98438 29.53125Q161.07812 29.734375 161.28125 29.875Q161.5 30.0 161.89062 30.0Q162.17188 30.0 162.65625 29.921875ZM164.82812 19.203125L164.82812 17.1875L166.59375 17.1875L166.59375 19.203125L164.82812 19.203125ZM164.82812 31.5L164.82812 21.125L166.59375 21.125L166.59375 31.5L164.82812 31.5ZM168.17188 26.3125Q168.17188 23.4375 169.76562 22.046875Q171.10938 20.890625 173.03125 20.890625Q175.17188 20.890625 176.51562 22.296875Q177.875 23.703125 177.875 26.171875Q177.875 28.171875 177.28125 29.328125Q176.6875 30.46875 175.53125 31.109375Q174.39062 31.734375 173.03125 31.734375Q170.84375 31.734375 169.5 30.34375Q168.17188 28.9375 168.17188 26.3125ZM169.96875 26.3125Q169.96875 28.3125 170.82812 29.296875Q171.70312 30.28125 173.03125 30.28125Q174.34375 30.28125 175.20312 29.296875Q176.07812 28.296875 176.07812 26.25Q176.07812 24.328125 175.20312 23.34375Q174.32812 22.34375 173.03125 22.34375Q171.70312 22.34375 170.82812 23.34375Q169.96875 24.328125 169.96875 26.3125ZM179.8125 31.5L179.8125 21.125L181.40625 21.125L181.40625 22.609375Q182.54688 20.890625 184.70312 20.890625Q185.64062 20.890625 186.42188 21.234375Q187.21875 21.5625 187.60938 22.109375Q188.0 22.65625 188.15625 23.40625Q188.25 23.90625 188.25 25.125L188.25 31.5L186.48438 31.5L186.48438 25.1875Q186.48438 24.109375 186.28125 23.578125Q186.07812 23.046875 185.54688 22.734375Q185.03125 22.421875 184.32812 22.421875Q183.20312 22.421875 182.39062 23.140625Q181.57812 23.84375 181.57812 25.828125L181.57812 31.5L179.8125 31.5ZM200.17188 35.703125Q198.71875 33.875 197.71875 31.421875Q196.71875 28.953125 196.71875 26.3125Q196.71875 23.984375 197.46875 21.859375Q198.34375 19.390625 200.17188 16.9375L201.4375 16.9375Q200.25 18.96875 199.875 19.84375Q199.28125 21.1875 198.9375 22.65625Q198.51562 24.484375 198.51562 26.328125Q198.51562 31.015625 201.4375 35.703125L200.17188 35.703125ZM204.04688 31.5L204.04688 17.1875L209.4375 17.1875Q210.875 17.1875 211.625 17.3125Q212.67188 17.5 213.39062 18.0Q214.10938 18.484375 214.53125 19.375Q214.96875 20.265625 214.96875 21.328125Q214.96875 23.15625 213.79688 24.421875Q212.64062 25.671875 209.60938 25.671875L205.9375 25.671875L205.9375 31.5L204.04688 31.5ZM205.9375 23.984375L209.64062 23.984375Q211.46875 23.984375 212.23438 23.3125Q213.01562 22.625 213.01562 21.375Q213.01562 20.484375 212.5625 19.84375Q212.10938 19.203125 211.375 19.0Q210.89062 18.875 209.59375 18.875L205.9375 18.875L205.9375 23.984375ZM216.79688 31.5L216.79688 21.125L218.375 21.125L218.375 22.703125Q218.98438 21.59375 219.5 21.25Q220.01562 20.890625 220.625 20.890625Q221.51562 20.890625 222.4375 21.453125L221.82812 23.09375Q221.1875 22.703125 220.54688 22.703125Q219.96875 22.703125 219.5 23.0625Q219.04688 23.40625 218.84375 24.015625Q218.5625 24.953125 218.5625 26.0625L218.5625 31.5L216.79688 31.5ZM223.17188 26.3125Q223.17188 23.4375 224.76562 22.046875Q226.10938 20.890625 228.03125 20.890625Q230.17188 20.890625 231.51562 22.296875Q232.875 23.703125 232.875 26.171875Q232.875 28.171875 232.28125 29.328125Q231.6875 30.46875 230.53125 31.109375Q229.39062 31.734375 228.03125 31.734375Q225.84375 31.734375 224.5 30.34375Q223.17188 28.9375 223.17188 26.3125ZM224.96875 26.3125Q224.96875 28.3125 225.82812 29.296875Q226.70312 30.28125 228.03125 30.28125Q229.34375 30.28125 230.20312 29.296875Q231.07812 28.296875 231.07812 26.25Q231.07812 24.328125 230.20312 23.34375Q229.32812 22.34375 228.03125 22.34375Q226.70312 22.34375 225.82812 23.34375Q224.96875 24.328125 224.96875 26.3125ZM241.54688 31.5L241.54688 30.1875Q240.5625 31.734375 238.64062 31.734375Q237.40625 31.734375 236.35938 31.046875Q235.32812 30.359375 234.75 29.140625Q234.1875 27.921875 234.1875 26.328125Q234.1875 24.765625 234.70312 23.5Q235.21875 22.234375 236.25 21.5625Q237.29688 20.890625 238.5625 20.890625Q239.5 20.890625 240.23438 21.296875Q240.96875 21.6875 241.4375 22.3125L241.4375 17.1875L243.17188 17.1875L243.17188 31.5L241.54688 31.5ZM235.98438 26.328125Q235.98438 28.3125 236.82812 29.296875Q237.67188 30.28125 238.8125 30.28125Q239.96875 30.28125 240.76562 29.34375Q241.57812 28.40625 241.57812 26.46875Q241.57812 24.34375 240.75 23.34375Q239.9375 22.34375 238.73438 22.34375Q237.5625 22.34375 236.76562 23.3125Q235.98438 24.265625 235.98438 26.328125ZM252.60938 31.5L252.60938 29.96875Q251.40625 31.734375 249.32812 31.734375Q248.40625 31.734375 247.60938 31.390625Q246.8125 31.03125 246.42188 30.5Q246.04688 29.96875 245.89062 29.1875Q245.78125 28.671875 245.78125 27.546875L245.78125 21.125L247.53125 21.125L247.53125 26.875Q247.53125 28.25 247.64062 28.734375Q247.8125 29.421875 248.34375 29.828125Q248.89062 30.21875 249.67188 30.21875Q250.46875 30.21875 251.15625 29.8125Q251.85938 29.40625 252.14062 28.71875Q252.4375 28.015625 252.4375 26.6875L252.4375 21.125L254.1875 21.125L254.1875 31.5L252.60938 31.5ZM263.59375 27.703125L265.3125 27.921875Q265.03125 29.71875 263.85938 30.734375Q262.70312 31.734375 261.0 31.734375Q258.875 31.734375 257.57812 30.34375Q256.28125 28.953125 256.28125 26.359375Q256.28125 24.671875 256.82812 23.421875Q257.39062 22.15625 258.53125 21.53125Q259.67188 20.890625 261.01562 20.890625Q262.70312 20.890625 263.76562 21.75Q264.84375 22.609375 265.15625 24.171875L263.4375 24.4375Q263.20312 23.390625 262.57812 22.875Q261.95312 22.34375 261.07812 22.34375Q259.75 22.34375 258.92188 23.296875Q258.09375 24.25 258.09375 26.296875Q258.09375 28.390625 258.89062 29.34375Q259.6875 30.28125 260.98438 30.28125Q262.01562 30.28125 262.70312 29.65625Q263.40625 29.015625 263.59375 27.703125ZM270.65625 29.921875L270.90625 31.484375Q270.17188 31.640625 269.57812 31.640625Q268.625 31.640625 268.09375 31.34375Q267.57812 31.03125 267.35938 30.546875Q267.14062 30.046875 267.14062 28.46875L267.14062 22.5L265.85938 22.5L265.85938 21.125L267.14062 21.125L267.14062 18.5625L268.89062 17.5L268.89062 21.125L270.65625 21.125L270.65625 22.5L268.89062 22.5L268.89062 28.5625Q268.89062 29.3125 268.98438 29.53125Q269.07812 29.734375 269.28125 29.875Q269.5 30.0 269.89062 30.0Q270.17188 30.0 270.65625 29.921875ZM273.96875 35.703125L272.71875 35.703125Q275.625 31.015625 275.625 26.328125Q275.625 24.484375 275.21875 22.6875Q274.875 21.21875 274.28125 19.875Q273.90625 18.984375 272.71875 16.9375L273.96875 16.9375Q275.8125 19.390625 276.6875 21.859375Q277.4375 23.984375 277.4375 26.3125Q277.4375 28.953125 276.42188 31.421875Q275.42188 33.875 273.96875 35.703125Z" fill-rule="nonzero"/></svg>