<svg version="1.1" viewBox="0.0 0.0 600.0 371.0" fill="none" stroke="none" stroke-linecap="square" stroke-miterlimit="10" width="600" height="371" xmlns:xlink="http://www.w3.org/1999/xlink" xmlns="http://www.w3.org/2000/svg"><path fill="#ffffff" d="M0 0L600.0 0L600.0 371.0L0 371.0L0 0Z" fill-rule="nonzero"/><path stroke="#cccccc" stroke-width="1.0" stroke-linecap="butt" d="M132.5 88.5L132.5 300.5" fill-rule="nonzero"/><path stroke="#cccccc" stroke-width="1.0" stroke-linecap="butt" d="M222.5 88.5L222.5 300.5" fill-rule="nonzero"/><path stroke="#cccccc" stroke-width="1.0" stroke-linecap="butt" d="M312.5 88.5L312.5 300.5" fill-rule="nonzero"/><path stroke="#cccccc" stroke-width="1.0" stroke-linecap="butt" d="M401.5 88.5L401.5 300.5" fill-rule="nonzero"/><path stroke="#cccccc" stroke-width="1.0" stroke-linecap="butt" d="M491.5 88.5L491.5 300.5" fill-rule="nonzero"/><path stroke="#cccccc" stroke-width="1.0" stroke-linecap="butt" d="M581.5 88.5L581.5 300.5" fill-rule="nonzero"/><path stroke="#333333" stroke-width="1.0" stroke-linecap="butt" d="M87.5 300.5L581.5 300.5" fill-rule="nonzero"/><path stroke="#cccccc" stroke-width="1.0" stroke-linecap="butt" d="M87.5 229.5L581.5 229.5" fill-rule="nonzero"/><path stroke="#cccccc" stroke-width="1.0" stroke-linecap="butt" d="M87.5 159.5L581.5 159.5" fill-rule="nonzero"/><path stroke="#cccccc" stroke-width="1.0" stroke-linecap="butt" d="M87.5 88.5L581.5 88.5" fill-rule="nonzero"/><clipPath id="id_0"><path d="M87.55 88.28333L581.45 88.28333L581.45 300.45L87.55 300.45L87.55 88.28333Z" clip-rule="nonzero"/></clipPath><path stroke="#4285f4" stroke-width="2.0" stroke-linecap="butt" clip-path="url(#id_0)" d="M87.55 286.83597L132.45 148.04361L177.35 160.2432L222.25 286.30554L267.15 194.54347L312.05 195.07388L356.95 287.0128L401.85 286.12875L446.75 286.30554L491.65 210.98639L536.55 203.03014L581.45 286.48236" fill-rule="nonzero"/><path stroke="#4285f4" stroke-width="2.0" stroke-linecap="butt" stroke-opacity="0.4" clip-path="url(#id_0)" d="M0 204.32204L581.45 259.2407" fill-rule="nonzero"/><path stroke="#ea4335" stroke-width="2.0" stroke-linecap="butt" clip-path="url(#id_0)" d="M87.55 269.50903L132.45 271.70142L177.35 272.1611L222.25 100.65972L267.15 95.77989L312.05 267.74097L356.95 275.69724L401.85 164.30972L446.75 147.0535L491.65 272.58545L536.55 269.50903L581.45 266.39725" fill-rule="nonzero"/><path stroke="#ea4335" stroke-width="2.0" stroke-linecap="butt" stroke-opacity="0.4" clip-path="url(#id_0)" d="M0 212.48192L581.45 230.34569" fill-rule="nonzero"/><path fill="#000000" fill-opacity="0.0" clip-path="url(#id_0)" d="M90.55 286.83597C90.55 288.49283 89.206856 289.83597 87.55 289.83597C85.89314 289.83597 84.55 288.49283 84.55 286.83597C84.55 285.1791 85.89314 283.83597 87.55 283.83597C89.206856 283.83597 90.55 285.1791 90.55 286.83597Z" fill-rule="nonzero"/><path fill="#000000" fill-opacity="0.0" clip-path="url(#id_0)" d="M135.45 148.04361C135.45 149.70047 134.10686 151.04361 132.45 151.04361C130.79315 151.04361 129.45 149.70047 129.45 148.04361C129.45 146.38675 130.79315 145.04361 132.45 145.04361C134.10686 145.04361 135.45 146.38675 135.45 148.04361Z" fill-rule="nonzero"/><path fill="#000000" fill-opacity="0.0" clip-path="url(#id_0)" d="M180.35 160.2432C180.35 161.90005 179.00685 163.2432 177.35 163.2432C175.69315 163.2432 174.35 161.90005 174.35 160.2432C174.35 158.58633 175.69315 157.2432 177.35 157.2432C179.00685 157.2432 180.35 158.58633 180.35 160.2432Z" fill-rule="nonzero"/><path fill="#000000" fill-opacity="0.0" clip-path="url(#id_0)" d="M225.25 286.30554C225.25 287.9624 223.90686 289.30554 222.25 289.30554C220.59314 289.30554 219.25 287.9624 219.25 286.30554C219.25 284.6487 220.59314 283.30554 222.25 283.30554C223.90686 283.30554 225.25 284.6487 225.25 286.30554Z" fill-rule="nonzero"/><path fill="#000000" fill-opacity="0.0" clip-path="url(#id_0)" d="M270.15 194.54347C270.15 196.20033 268.80685 197.54347 267.15 197.54347C265.49313 197.54347 264.15 196.20033 264.15 194.54347C264.15 192.88661 265.49313 191.54347 267.15 191.54347C268.80685 191.54347 270.15 192.88661 270.15 194.54347Z" fill-rule="nonzero"/><path fill="#000000" fill-opacity="0.0" clip-path="url(#id_0)" d="M315.05 195.07388C315.05 196.73074 313.70685 198.07388 312.05 198.07388C310.39316 198.07388 309.05 196.73074 309.05 195.07388C309.05 193.41704 310.39316 192.07388 312.05 192.07388C313.70685 192.07388 315.05 193.41704 315.05 195.07388Z" fill-rule="nonzero"/><path fill="#000000" fill-opacity="0.0" clip-path="url(#id_0)" d="M359.95 287.0128C359.95 288.66965 358.60684 290.0128 356.95 290.0128C355.29315 290.0128 353.95 288.66965 353.95 287.0128C353.95 285.35593 355.29315 284.0128 356.95 284.0128C358.60684 284.0128 359.95 285.35593 359.95 287.0128Z" fill-rule="nonzero"/><path fill="#000000" fill-opacity="0.0" clip-path="url(#id_0)" d="M404.85 286.12875C404.85 287.7856 403.50687 289.12875 401.85 289.12875C400.19315 289.12875 398.85 287.7856 398.85 286.12875C398.85 284.4719 400.19315 283.12875 401.85 283.12875C403.50687 283.12875 404.85 284.4719 404.85 286.12875Z" fill-rule="nonzero"/><path fill="#000000" fill-opacity="0.0" clip-path="url(#id_0)" d="M449.75 286.30554C449.75 287.9624 448.40686 289.30554 446.75 289.30554C445.09314 289.30554 443.75 287.9624 443.75 286.30554C443.75 284.6487 445.09314 283.30554 446.75 283.30554C448.40686 283.30554 449.75 284.6487 449.75 286.30554Z" fill-rule="nonzero"/><path fill="#000000" fill-opacity="0.0" clip-path="url(#id_0)" d="M494.65 210.98639C494.65 212.64325 493.30685 213.98639 491.65 213.98639C489.99313 213.98639 488.65 212.64325 488.65 210.98639C488.65 209.32953 489.99313 207.98639 491.65 207.98639C493.30685 207.98639 494.65 209.32953 494.65 210.98639Z" fill-rule="nonzero"/><path fill="#000000" fill-opacity="0.0" clip-path="url(#id_0)" d="M539.55 203.03014C539.55 204.687 538.20685 206.03014 536.55 206.03014C534.8931 206.03014 533.55 204.687 533.55 203.03014C533.55 201.37329 534.8931 200.03014 536.55 200.03014C538.20685 200.03014 539.55 201.37329 539.55 203.03014Z" fill-rule="nonzero"/><path fill="#000000" fill-opacity="0.0" clip-path="url(#id_0)" d="M584.45 286.48236C584.45 288.13922 583.1069 289.48236 581.45 289.48236C579.79315 289.48236 578.45 288.13922 578.45 286.48236C578.45 284.8255 579.79315 283.48236 581.45 283.48236C583.1069 283.48236 584.45 284.8255 584.45 286.48236Z" fill-rule="nonzero"/><path fill="#000000" fill-opacity="0.0" clip-path="url(#id_0)" d="M90.55 269.50903C90.55 271.1659 89.206856 272.50903 87.55 272.50903C85.89314 272.50903 84.55 271.1659 84.55 269.50903C84.55 267.85217 85.89314 266.50903 87.55 266.50903C89.206856 266.50903 90.55 267.85217 90.55 269.50903Z" fill-rule="nonzero"/><path fill="#000000" fill-opacity="0.0" clip-path="url(#id_0)" d="M135.45 271.70142C135.45 273.35828 134.10686 274.70142 132.45 274.70142C130.79315 274.70142 129.45 273.35828 129.45 271.70142C129.45 270.04456 130.79315 268.70142 132.45 268.70142C134.10686 268.70142 135.45 270.04456 135.45 271.70142Z" fill-rule="nonzero"/><path fill="#000000" fill-opacity="0.0" clip-path="url(#id_0)" d="M180.35 272.1611C180.35 273.81796 179.00685 275.1611 177.35 275.1611C175.69315 275.1611 174.35 273.81796 174.35 272.1611C174.35 270.50424 175.69315 269.1611 177.35 269.1611C179.00685 269.1611 180.35 270.50424 180.35 272.1611Z" fill-rule="nonzero"/><path fill="#000000" fill-opacity="0.0" clip-path="url(#id_0)" d="M225.25 100.65972C225.25 102.316574 223.90686 103.65972 222.25 103.65972C220.59314 103.65972 219.25 102.316574 219.25 100.65972C219.25 99.00287 220.59314 97.65972 222.25 97.65972C223.90686 97.65972 225.25 99.00287 225.25 100.65972Z" fill-rule="nonzero"/><path fill="#000000" fill-opacity="0.0" clip-path="url(#id_0)" d="M270.15 95.77989C270.15 97.436745 268.80685 98.77989 267.15 98.77989C265.49313 98.77989 264.15 97.436745 264.15 95.77989C264.15 94.12303 265.49313 92.77989 267.15 92.77989C268.80685 92.77989 270.15 94.12303 270.15 95.77989Z" fill-rule="nonzero"/><path fill="#000000" fill-opacity="0.0" clip-path="url(#id_0)" d="M315.05 267.74097C315.05 269.39783 313.70685 270.74097 312.05 270.74097C310.39316 270.74097 309.05 269.39783 309.05 267.74097C309.05 266.0841 310.39316 264.74097 312.05 264.74097C313.70685 264.74097 315.05 266.0841 315.05 267.74097Z" fill-rule="nonzero"/><path fill="#000000" fill-opacity="0.0" clip-path="url(#id_0)" d="M359.95 275.69724C359.95 277.35406 358.60684 278.69724 356.95 278.69724C355.29315 278.69724 353.95 277.35406 353.95 275.69724C353.95 274.04037 355.29315 272.69724 356.95 272.69724C358.60684 272.69724 359.95 274.04037 359.95 275.69724Z" fill-rule="nonzero"/><path fill="#000000" fill-opacity="0.0" clip-path="url(#id_0)" d="M404.85 164.30972C404.85 165.96658 403.50687 167.30972 401.85 167.30972C400.19315 167.30972 398.85 165.96658 398.85 164.30972C398.85 162.65286 400.19315 161.30972 401.85 161.30972C403.50687 161.30972 404.85 162.65286 404.85 164.30972Z" fill-rule="nonzero"/><path fill="#000000" fill-opacity="0.0" clip-path="url(#id_0)" d="M449.75 147.0535C449.75 148.71036 448.40686 150.0535 446.75 150.0535C445.09314 150.0535 443.75 148.71036 443.75 147.0535C443.75 145.39665 445.09314 144.0535 446.75 144.0535C448.40686 144.0535 449.75 145.39665 449.75 147.0535Z" fill-rule="nonzero"/><path fill="#000000" fill-opacity="0.0" clip-path="url(#id_0)" d="M494.65 272.58545C494.65 274.2423 493.30685 275.58545 491.65 275.58545C489.99313 275.58545 488.65 274.2423 488.65 272.58545C488.65 270.9286 489.99313 269.58545 491.65 269.58545C493.30685 269.58545 494.65 270.9286 494.65 272.58545Z" fill-rule="nonzero"/><path fill="#000000" fill-opacity="0.0" clip-path="url(#id_0)" d="M539.55 269.50903C539.55 271.1659 538.20685 272.50903 536.55 272.50903C534.8931 272.50903 533.55 271.1659 533.55 269.50903C533.55 267.85217 534.8931 266.50903 536.55 266.50903C538.20685 266.50903 539.55 267.85217 539.55 269.50903Z" fill-rule="nonzero"/><path fill="#000000" fill-opacity="0.0" clip-path="url(#id_0)" d="M584.45 266.39725C584.45 268.0541 583.1069 269.39725 581.45 269.39725C579.79315 269.39725 578.45 268.0541 578.45 266.39725C578.45 264.7404 579.79315 263.39725 581.45 263.39725C583.1069 263.39725 584.45 264.7404 584.45 266.39725Z" fill-rule="nonzero"/><path fill="#000000" d="M294.79688 349.45L294.79688 340.85626L295.84375 340.85626L295.84375 343.9344Q296.57812 343.09064 297.70312 343.09064Q298.40625 343.09064 298.90625 343.3719Q299.42188 343.6375 299.64062 344.1219Q299.85938 344.59064 299.85938 345.5125L299.85938 349.45L298.8125 349.45L298.8125 345.5125Q298.8125 344.71564 298.46875 344.35626Q298.125 343.9969 297.5 343.9969Q297.03125 343.9969 296.60938 344.2469Q296.20312 344.48126 296.01562 344.90314Q295.84375 345.3094 295.84375 346.04376L295.84375 349.45L294.79688 349.45ZM301.40625 346.34064Q301.40625 344.60626 302.35938 343.77814Q303.15625 343.09064 304.3125 343.09064Q305.59375 343.09064 306.40625 343.9344Q307.23438 344.7625 307.23438 346.2469Q307.23438 347.45 306.875 348.1375Q306.51562 348.825 305.8125 349.21564Q305.125 349.59064 304.3125 349.59064Q303.01562 349.59064 302.20312 348.7625Q301.40625 347.91876 301.40625 346.34064ZM302.48438 346.34064Q302.48438 347.52814 303.0 348.1219Q303.53125 348.71564 304.3125 348.71564Q305.10938 348.71564 305.625 348.1219Q306.14062 347.52814 306.14062 346.3094Q306.14062 345.15314 305.60938 344.5594Q305.09375 343.96564 304.3125 343.96564Q303.53125 343.96564 303.0 344.5594Q302.48438 345.1375 302.48438 346.34064ZM312.875 349.45L312.875 348.52814Q312.14062 349.59064 310.89062 349.59064Q310.34375 349.59064 309.85938 349.3875Q309.39062 349.16876 309.15625 348.85626Q308.92188 348.52814 308.82812 348.0594Q308.76562 347.7625 308.76562 347.075L308.76562 343.23126L309.82812 343.23126L309.82812 346.6844Q309.82812 347.4969 309.89062 347.79376Q309.98438 348.2 310.29688 348.45Q310.625 348.6844 311.10938 348.6844Q311.57812 348.6844 311.98438 348.45Q312.40625 348.2 312.57812 347.77814Q312.76562 347.35626 312.76562 346.5594L312.76562 343.23126L313.8125 343.23126L313.8125 349.45L312.875 349.45ZM315.78125 349.45L315.78125 343.23126L316.73438 343.23126L316.73438 344.16876Q317.09375 343.5125 317.39062 343.3094Q317.70312 343.09064 318.07812 343.09064Q318.60938 343.09064 319.15625 343.41876L318.79688 344.40314Q318.40625 344.16876 318.03125 344.16876Q317.67188 344.16876 317.39062 344.3875Q317.125 344.59064 317.01562 344.96564Q316.82812 345.52814 316.82812 346.1844L316.82812 349.45L315.78125 349.45ZM322.40625 346.34064Q322.40625 344.60626 323.35938 343.77814Q324.15625 343.09064 325.3125 343.09064Q326.59375 343.09064 327.40625 343.9344Q328.23438 344.7625 328.23438 346.2469Q328.23438 347.45 327.875 348.1375Q327.51562 348.825 326.8125 349.21564Q326.125 349.59064 325.3125 349.59064Q324.01562 349.59064 323.20312 348.7625Q322.40625 347.91876 322.40625 346.34064ZM323.48438 346.34064Q323.48438 347.52814 324.0 348.1219Q324.53125 348.71564 325.3125 348.71564Q326.10938 348.71564 326.625 348.1219Q327.14062 347.52814 327.14062 346.3094Q327.14062 345.15314 326.60938 344.5594Q326.09375 343.96564 325.3125 343.96564Q324.53125 343.96564 324.0 344.5594Q323.48438 345.1375 323.48438 346.34064ZM330.04688 349.45L330.04688 344.04376L329.10938 344.04376L329.10938 343.23126L330.04688 343.23126L330.04688 342.5594Q330.04688 341.9344 330.15625 341.6375Q330.3125 341.21564 330.6875 340.96564Q331.07812 340.71564 331.76562 340.71564Q332.21875 340.71564 332.75 340.825L332.59375 341.73126Q332.26562 341.6844 331.96875 341.6844Q331.48438 341.6844 331.28125 341.8875Q331.09375 342.09064 331.09375 342.65314L331.09375 343.23126L332.3125 343.23126L332.3125 344.04376L331.09375 344.04376L331.09375 349.45L330.04688 349.45ZM338.09375 348.5125L338.25 349.4344Q337.79688 349.52814 337.45312 349.52814Q336.875 349.52814 336.5625 349.35626Q336.25 349.16876 336.10938 348.8719Q335.98438 348.575 335.98438 347.6219L335.98438 344.04376L335.21875 344.04376L335.21875 343.23126L335.98438 343.23126L335.98438 341.6844L337.03125 341.0594L337.03125 343.23126L338.09375 343.23126L338.09375 344.04376L337.03125 344.04376L337.03125 347.6844Q337.03125 348.1375 337.07812 348.2625Q337.14062 348.3875 337.26562 348.46564Q337.39062 348.54376 337.625 348.54376Q337.8125 348.54376 338.09375 348.5125ZM338.79688 349.45L338.79688 340.85626L339.84375 340.85626L339.84375 343.9344Q340.57812 343.09064 341.70312 343.09064Q342.40625 343.09064 342.90625 343.3719Q343.42188 343.6375 343.64062 344.1219Q343.85938 344.59064 343.85938 345.5125L343.85938 349.45L342.8125 349.45L342.8125 345.5125Q342.8125 344.71564 342.46875 344.35626Q342.125 343.9969 341.5 343.9969Q341.03125 343.9969 340.60938 344.2469Q340.20312 344.48126 340.01562 344.90314Q339.84375 345.3094 339.84375 346.04376L339.84375 349.45L338.79688 349.45ZM350.04688 347.45L351.14062 347.575Q350.89062 348.52814 350.1875 349.0594Q349.48438 349.59064 348.40625 349.59064Q347.04688 349.59064 346.23438 348.7469Q345.4375 347.90314 345.4375 346.3875Q345.4375 344.825 346.25 343.96564Q347.0625 343.09064 348.34375 343.09064Q349.59375 343.09064 350.375 343.9344Q351.17188 344.77814 351.17188 346.325Q351.17188 346.41876 351.17188 346.60626L346.53125 346.60626Q346.59375 347.6375 347.10938 348.1844Q347.625 348.71564 348.40625 348.71564Q348.98438 348.71564 349.39062 348.41876Q349.8125 348.10626 350.04688 347.45ZM346.59375 345.7469L350.0625 345.7469Q350.0 344.95 349.67188 344.5594Q349.15625 343.95 348.35938 343.95Q347.625 343.95 347.125 344.4344Q346.64062 344.91876 346.59375 345.7469ZM359.82812 349.45L359.82812 348.66876Q359.23438 349.59064 358.09375 349.59064Q357.34375 349.59064 356.71875 349.1844Q356.09375 348.7625 355.75 348.02814Q355.40625 347.29376 355.40625 346.34064Q355.40625 345.41876 355.71875 344.65314Q356.03125 343.8875 356.65625 343.4969Q357.28125 343.09064 358.04688 343.09064Q358.60938 343.09064 359.04688 343.325Q359.48438 343.5594 359.76562 343.9344L359.76562 340.85626L360.8125 340.85626L360.8125 349.45L359.82812 349.45ZM356.5 346.34064Q356.5 347.54376 357.0 348.1375Q357.5 348.71564 358.1875 348.71564Q358.875 348.71564 359.35938 348.15314Q359.84375 347.59064 359.84375 346.4344Q359.84375 345.15314 359.34375 344.5594Q358.85938 343.96564 358.14062 343.96564Q357.4375 343.96564 356.96875 344.54376Q356.5 345.10626 356.5 346.34064ZM366.85938 348.6844Q366.26562 349.1844 365.71875 349.3875Q365.1875 349.59064 364.5625 349.59064Q363.53125 349.59064 362.98438 349.09064Q362.4375 348.59064 362.4375 347.8094Q362.4375 347.35626 362.64062 346.98126Q362.84375 346.59064 363.1875 346.3719Q363.53125 346.1375 363.95312 346.02814Q364.25 345.9344 364.89062 345.85626Q366.15625 345.71564 366.76562 345.4969Q366.76562 345.27814 366.76562 345.23126Q366.76562 344.575 366.46875 344.3094Q366.0625 343.96564 365.26562 343.96564Q364.53125 343.96564 364.17188 344.23126Q363.8125 344.48126 363.64062 345.1375L362.60938 344.9969Q362.75 344.34064 363.07812 343.9344Q363.40625 343.52814 364.01562 343.3094Q364.625 343.09064 365.42188 343.09064Q366.21875 343.09064 366.71875 343.27814Q367.21875 343.46564 367.45312 343.7469Q367.6875 344.02814 367.78125 344.46564Q367.82812 344.73126 367.82812 345.4344L367.82812 346.84064Q367.82812 348.3094 367.89062 348.7Q367.96875 349.09064 368.17188 349.45L367.0625 349.45Q366.90625 349.1219 366.85938 348.6844ZM366.76562 346.325Q366.1875 346.5594 365.04688 346.73126Q364.39062 346.825 364.125 346.95Q363.85938 347.0594 363.70312 347.27814Q363.5625 347.4969 363.5625 347.77814Q363.5625 348.2 363.875 348.48126Q364.20312 348.7625 364.8125 348.7625Q365.42188 348.7625 365.89062 348.4969Q366.375 348.23126 366.59375 347.7625Q366.76562 347.40314 366.76562 346.71564L366.76562 346.325ZM369.75 351.84064L369.625 350.85626Q369.96875 350.95 370.23438 350.95Q370.57812 350.95 370.78125 350.825Q371.0 350.71564 371.14062 350.5125Q371.23438 350.34064 371.46875 349.71564Q371.48438 349.6375 371.5625 349.46564L369.1875 343.23126L370.32812 343.23126L371.625 346.825Q371.875 347.5125 372.07812 348.27814Q372.26562 347.54376 372.51562 346.85626L373.84375 343.23126L374.89062 343.23126L372.53125 349.5594Q372.14062 350.575 371.9375 350.96564Q371.65625 351.4969 371.28125 351.73126Q370.92188 351.98126 370.42188 351.98126Q370.125 351.98126 369.75 351.84064Z" fill-rule="nonzero"/><path fill="#000000" d="M29.550013 262.0698L23.331263 262.0698L23.331263 261.1323L24.206263 261.1323Q23.190638 260.4448 23.190638 259.14792Q23.190638 258.58542 23.393763 258.11667Q23.596888 257.6323 23.925013 257.39792Q24.253138 257.16354 24.690638 257.0698Q24.987513 257.02292 25.721888 257.02292L29.550013 257.02292L29.550013 258.0698L25.768763 258.0698Q25.112513 258.0698 24.800013 258.1948Q24.487513 258.3198 24.300013 258.6323Q24.096888 258.9448 24.096888 259.36667Q24.096888 260.03854 24.534388 260.53854Q24.956263 261.02292 26.143763 261.02292L29.550013 261.02292L29.550013 262.0698ZM29.550013 250.99167L28.628138 250.99167Q29.690638 251.72604 29.690638 252.97604Q29.690638 253.52292 29.487513 254.0073Q29.268763 254.47604 28.956263 254.71042Q28.628138 254.9448 28.159388 255.03854Q27.862513 255.10104 27.175013 255.10104L23.331263 255.10104L23.331263 254.03854L26.784388 254.03854Q27.596888 254.03854 27.893763 253.97604Q28.300013 253.8823 28.550013 253.5698Q28.784388 253.24167 28.784388 252.7573Q28.784388 252.28854 28.550013 251.8823Q28.300013 251.46042 27.878138 251.28854Q27.456263 251.10104 26.659388 251.10104L23.331263 251.10104L23.331263 250.05417L29.550013 250.05417L29.550013 250.99167ZM29.550013 248.0698L23.331263 248.0698L23.331263 247.1323L24.206263 247.1323Q23.737513 246.83542 23.471888 246.35104Q23.190638 245.86667 23.190638 245.24167Q23.190638 244.55417 23.471888 244.11667Q23.753138 243.66354 24.268763 243.49167Q23.190638 242.74167 23.190638 241.5698Q23.190638 240.6323 23.706263 240.14792Q24.206263 239.64792 25.284388 239.64792L29.550013 239.64792L29.550013 240.6948L25.628138 240.6948Q25.003138 240.6948 24.721888 240.80417Q24.440638 240.89792 24.268763 241.16354Q24.096888 241.42917 24.096888 241.80417Q24.096888 242.46042 24.534388 242.89792Q24.971888 243.3198 25.940638 243.3198L29.550013 243.3198L29.550013 244.3823L25.503138 244.3823Q24.800013 244.3823 24.456263 244.64792Q24.096888 244.89792 24.096888 245.47604Q24.096888 245.92917 24.331263 246.30417Q24.565638 246.67917 25.018763 246.85104Q25.471888 247.02292 26.315638 247.02292L29.550013 247.02292L29.550013 248.0698ZM29.550013 237.10104L29.550013 238.08542L20.956263 238.08542L20.956263 237.02292L24.018763 237.02292Q23.190638 236.35104 23.190638 235.3198Q23.190638 234.74167 23.425013 234.24167Q23.643763 233.72604 24.065638 233.39792Q24.487513 233.05417 25.081263 232.86667Q25.675013 232.67917 26.346888 232.67917Q27.940638 232.67917 28.815638 233.47604Q29.690638 234.27292 29.690638 235.36667Q29.690638 236.47604 28.768763 237.10104L29.550013 237.10104ZM26.393763 237.11667Q27.503138 237.11667 28.003138 236.80417Q28.815638 236.30417 28.815638 235.46042Q28.815638 234.77292 28.221888 234.27292Q27.628138 233.7573 26.425013 233.7573Q25.206263 233.7573 24.628138 234.24167Q24.050013 234.72604 24.050013 235.41354Q24.050013 236.10104 24.659388 236.61667Q25.253138 237.11667 26.393763 237.11667ZM27.550013 226.8198L27.675013 225.72604Q28.628138 225.97604 29.159388 226.67917Q29.690638 227.3823 29.690638 228.46042Q29.690638 229.8198 28.846888 230.6323Q28.003138 231.42917 26.487513 231.42917Q24.925013 231.42917 24.065638 230.61667Q23.190638 229.80417 23.190638 228.52292Q23.190638 227.27292 24.034388 226.49167Q24.878138 225.6948 26.425013 225.6948Q26.518763 225.6948 26.706263 225.6948L26.706263 230.33542Q27.737513 230.27292 28.284388 229.7573Q28.815638 229.24167 28.815638 228.46042Q28.815638 227.8823 28.518763 227.47604Q28.206263 227.05417 27.550013 226.8198ZM25.846888 230.27292L25.846888 226.80417Q25.050013 226.86667 24.659388 227.1948Q24.050013 227.71042 24.050013 228.5073Q24.050013 229.24167 24.534388 229.74167Q25.018763 230.22604 25.846888 230.27292ZM29.550013 224.08542L23.331263 224.08542L23.331263 223.1323L24.268763 223.1323Q23.612513 222.77292 23.409388 222.47604Q23.190638 222.16354 23.190638 221.78854Q23.190638 221.2573 23.518763 220.71042L24.503138 221.0698Q24.268763 221.46042 24.268763 221.83542Q24.268763 222.1948 24.487513 222.47604Q24.690638 222.74167 25.065638 222.85104Q25.628138 223.03854 26.284388 223.03854L29.550013 223.03854L29.550013 224.08542ZM26.440638 217.46042Q24.706263 217.46042 23.878138 216.5073Q23.190638 215.71042 23.190638 214.55417Q23.190638 213.27292 24.034388 212.46042Q24.862513 211.6323 26.346888 211.6323Q27.550013 211.6323 28.237513 211.99167Q28.925013 212.35104 29.315638 213.05417Q29.690638 213.74167 29.690638 214.55417Q29.690638 215.85104 28.862513 216.66354Q28.018763 217.46042 26.440638 217.46042ZM26.440638 216.3823Q27.628138 216.3823 28.221888 215.86667Q28.815638 215.33542 28.815638 214.55417Q28.815638 213.7573 28.221888 213.24167Q27.628138 212.72604 26.409388 212.72604Q25.253138 212.72604 24.659388 213.2573Q24.065638 213.77292 24.065638 214.55417Q24.065638 215.33542 24.659388 215.86667Q25.237513 216.3823 26.440638 216.3823ZM29.550013 209.8198L24.143763 209.8198L24.143763 210.7573L23.331263 210.7573L23.331263 209.8198L22.659388 209.8198Q22.034388 209.8198 21.737513 209.71042Q21.315638 209.55417 21.065638 209.17917Q20.815638 208.78854 20.815638 208.10104Q20.815638 207.64792 20.925013 207.11667L21.831263 207.27292Q21.784388 207.60104 21.784388 207.89792Q21.784388 208.3823 21.987513 208.58542Q22.190638 208.77292 22.753138 208.77292L23.331263 208.77292L23.331263 207.55417L24.143763 207.55417L24.143763 208.77292L29.550013 208.77292L29.550013 209.8198ZM26.440638 204.46042Q24.706263 204.46042 23.878138 203.5073Q23.190638 202.71042 23.190638 201.55417Q23.190638 200.27292 24.034388 199.46042Q24.862513 198.6323 26.346888 198.6323Q27.550013 198.6323 28.237513 198.99167Q28.925013 199.35104 29.315638 200.05417Q29.690638 200.74167 29.690638 201.55417Q29.690638 202.85104 28.862513 203.66354Q28.018763 204.46042 26.440638 204.46042ZM26.440638 203.3823Q27.628138 203.3823 28.221888 202.86667Q28.815638 202.33542 28.815638 201.55417Q28.815638 200.7573 28.221888 200.24167Q27.628138 199.72604 26.409388 199.72604Q25.253138 199.72604 24.659388 200.2573Q24.065638 200.77292 24.065638 201.55417Q24.065638 202.33542 24.659388 202.86667Q25.237513 203.3823 26.440638 203.3823ZM29.550013 197.08542L23.331263 197.08542L23.331263 196.1323L24.268763 196.1323Q23.612513 195.77292 23.409388 195.47604Q23.190638 195.16354 23.190638 194.78854Q23.190638 194.2573 23.518763 193.71042L24.503138 194.0698Q24.268763 194.46042 24.268763 194.83542Q24.268763 195.1948 24.487513 195.47604Q24.690638 195.74167 25.065638 195.85104Q25.628138 196.03854 26.284388 196.03854L29.550013 196.03854L29.550013 197.08542ZM29.550013 189.03854L28.768763 189.03854Q29.690638 189.6323 29.690638 190.77292Q29.690638 191.52292 29.284388 192.14792Q28.862513 192.77292 28.128138 193.11667Q27.393763 193.46042 26.440638 193.46042Q25.518763 193.46042 24.753138 193.14792Q23.987513 192.83542 23.596888 192.21042Q23.190638 191.58542 23.190638 190.8198Q23.190638 190.2573 23.425013 189.8198Q23.659388 189.3823 24.034388 189.10104L20.956263 189.10104L20.956263 188.05417L29.550013 188.05417L29.550013 189.03854ZM26.440638 192.36667Q27.643763 192.36667 28.237513 191.86667Q28.815638 191.36667 28.815638 190.67917Q28.815638 189.99167 28.253138 189.5073Q27.690638 189.02292 26.534388 189.02292Q25.253138 189.02292 24.659388 189.52292Q24.065638 190.0073 24.065638 190.72604Q24.065638 191.42917 24.643763 191.89792Q25.206263 192.36667 26.440638 192.36667ZM27.550013 181.8198L27.675013 180.72604Q28.628138 180.97604 29.159388 181.67917Q29.690638 182.3823 29.690638 183.46042Q29.690638 184.8198 28.846888 185.6323Q28.003138 186.42917 26.487513 186.42917Q24.925013 186.42917 24.065638 185.61667Q23.190638 184.80417 23.190638 183.52292Q23.190638 182.27292 24.034388 181.49167Q24.878138 180.6948 26.425013 180.6948Q26.518763 180.6948 26.706263 180.6948L26.706263 185.33542Q27.737513 185.27292 28.284388 184.7573Q28.815638 184.24167 28.815638 183.46042Q28.815638 182.8823 28.518763 182.47604Q28.206263 182.05417 27.550013 181.8198ZM25.846888 185.27292L25.846888 181.80417Q25.050013 181.86667 24.659388 182.1948Q24.050013 182.71042 24.050013 183.5073Q24.050013 184.24167 24.534388 184.74167Q25.018763 185.22604 25.846888 185.27292ZM29.550013 179.08542L23.331263 179.08542L23.331263 178.1323L24.268763 178.1323Q23.612513 177.77292 23.409388 177.47604Q23.190638 177.16354 23.190638 176.78854Q23.190638 176.2573 23.518763 175.71042L24.503138 176.0698Q24.268763 176.46042 24.268763 176.83542Q24.268763 177.1948 24.487513 177.47604Q24.690638 177.74167 25.065638 177.85104Q25.628138 178.03854 26.284388 178.03854L29.550013 178.03854L29.550013 179.08542ZM27.690638 175.49167L27.534388 174.46042Q28.159388 174.36667 28.487513 173.97604Q28.815638 173.5698 28.815638 172.83542Q28.815638 172.11667 28.534388 171.77292Q28.237513 171.41354 27.831263 171.41354Q27.471888 171.41354 27.268763 171.72604Q27.128138 171.9448 26.909388 172.80417Q26.612513 173.96042 26.409388 174.41354Q26.190638 174.85104 25.815638 175.08542Q25.440638 175.3198 24.971888 175.3198Q24.565638 175.3198 24.206263 175.1323Q23.846888 174.9448 23.612513 174.61667Q23.440638 174.36667 23.315638 173.9448Q23.190638 173.52292 23.190638 173.02292Q23.190638 172.30417 23.409388 171.7573Q23.612513 171.1948 23.971888 170.92917Q24.331263 170.66354 24.925013 170.5698L25.065638 171.60104Q24.596888 171.66354 24.331263 172.0073Q24.050013 172.33542 24.050013 172.96042Q24.050013 173.67917 24.300013 173.99167Q24.534388 174.30417 24.862513 174.30417Q25.065638 174.30417 25.221888 174.17917Q25.393763 174.03854 25.503138 173.77292Q25.565638 173.61667 25.768763 172.83542Q26.081263 171.71042 26.268763 171.27292Q26.456263 170.83542 26.815638 170.58542Q27.175013 170.33542 27.721888 170.33542Q28.253138 170.33542 28.721888 170.64792Q29.175013 170.9448 29.440638 171.52292Q29.690638 172.10104 29.690638 172.83542Q29.690638 174.05417 29.190638 174.6948Q28.675013 175.3198 27.690638 175.49167ZM32.08126 164.05417Q30.971888 164.92917 29.503138 165.53854Q28.018763 166.1323 26.440638 166.1323Q25.050013 166.1323 23.768763 165.6948Q22.284388 165.16354 20.815638 164.05417L20.815638 163.30417Q22.034388 164.0073 22.550013 164.24167Q23.362513 164.60104 24.237513 164.80417Q25.331263 165.05417 26.440638 165.05417Q29.268763 165.05417 32.08126 163.30417L32.08126 164.05417ZM28.784388 158.0073Q29.284388 158.60104 29.487513 159.14792Q29.690638 159.67917 29.690638 160.30417Q29.690638 161.33542 29.190638 161.8823Q28.690638 162.42917 27.909388 162.42917Q27.456263 162.42917 27.081263 162.22604Q26.690638 162.02292 26.471888 161.67917Q26.237513 161.33542 26.128138 160.91354Q26.034388 160.61667 25.956263 159.97604Q25.815638 158.71042 25.596888 158.10104Q25.378138 158.10104 25.331263 158.10104Q24.675013 158.10104 24.409388 158.39792Q24.065638 158.80417 24.065638 159.60104Q24.065638 160.33542 24.331263 160.6948Q24.581263 161.05417 25.237513 161.22604L25.096888 162.2573Q24.440638 162.11667 24.034388 161.78854Q23.628138 161.46042 23.409388 160.85104Q23.190638 160.24167 23.190638 159.4448Q23.190638 158.64792 23.378138 158.14792Q23.565638 157.64792 23.846888 157.41354Q24.128138 157.17917 24.565638 157.08542Q24.831263 157.03854 25.534388 157.03854L26.940638 157.03854Q28.409388 157.03854 28.800013 156.97604Q29.190638 156.89792 29.550013 156.6948L29.550013 157.80417Q29.221888 157.96042 28.784388 158.0073ZM26.425013 158.10104Q26.659388 158.67917 26.831263 159.8198Q26.925013 160.47604 27.050013 160.74167Q27.159388 161.0073 27.378138 161.16354Q27.596888 161.30417 27.878138 161.30417Q28.300013 161.30417 28.581263 160.99167Q28.862513 160.66354 28.862513 160.05417Q28.862513 159.4448 28.596888 158.97604Q28.331263 158.49167 27.862513 158.27292Q27.503138 158.10104 26.815638 158.10104L26.425013 158.10104ZM29.550013 153.35104L23.331263 155.71042L23.331263 154.60104L27.050013 153.2573Q27.659388 153.05417 28.300013 152.86667Q27.815638 152.72604 27.128138 152.47604L23.331263 151.08542L23.331263 150.0073L29.550013 152.36667L29.550013 153.35104ZM30.065638 149.27292L30.221888 148.24167Q30.690638 148.17917 30.909388 147.8823Q31.206263 147.49167 31.206263 146.8198Q31.206263 146.08542 30.909388 145.6948Q30.612513 145.28854 30.096888 145.14792Q29.768763 145.05417 28.737513 145.0698Q29.550013 145.7573 29.550013 146.78854Q29.550013 148.0698 28.628138 148.77292Q27.690638 149.47604 26.409388 149.47604Q25.518763 149.47604 24.768763 149.16354Q24.003138 148.83542 23.596888 148.22604Q23.190638 147.61667 23.190638 146.78854Q23.190638 145.67917 24.081263 144.96042L23.331263 144.96042L23.331263 143.99167L28.706263 143.99167Q30.159388 143.99167 30.768763 144.28854Q31.378138 144.58542 31.721888 145.22604Q32.08126 145.86667 32.08126 146.80417Q32.08126 147.91354 31.581263 148.60104Q31.081263 149.28854 30.065638 149.27292ZM26.331263 148.39792Q27.550013 148.39792 28.112513 147.91354Q28.675013 147.42917 28.675013 146.6948Q28.675013 145.96042 28.112513 145.47604Q27.550013 144.97604 26.362513 144.97604Q25.221888 144.97604 24.643763 145.49167Q24.065638 145.99167 24.065638 146.71042Q24.065638 147.41354 24.643763 147.91354Q25.206263 148.39792 26.331263 148.39792ZM32.08126 141.3823L32.08126 142.1323Q29.268763 140.3823 26.440638 140.3823Q25.346888 140.3823 24.253138 140.6323Q23.378138 140.83542 22.565638 141.1948Q22.050013 141.42917 20.815638 142.1323L20.815638 141.3823Q22.284388 140.28854 23.768763 139.7573Q25.050013 139.30417 26.440638 139.30417Q28.018763 139.30417 29.503138 139.91354Q30.971888 140.52292 32.08126 141.3823Z" fill-rule="nonzero"/><path fill="#000000" d="M58.05 300.21564Q58.05 298.6844 58.3625 297.7625Q58.675 296.825 59.284374 296.325Q59.909374 295.825 60.846874 295.825Q61.534374 295.825 62.05 296.10626Q62.58125 296.3875 62.925 296.91876Q63.26875 297.4344 63.45625 298.1844Q63.64375 298.9344 63.64375 300.21564Q63.64375 301.73126 63.33125 302.65314Q63.034374 303.575 62.409374 304.09064Q61.8 304.59064 60.846874 304.59064Q59.6125 304.59064 58.89375 303.7Q58.05 302.6375 58.05 300.21564ZM59.128124 300.21564Q59.128124 302.325 59.628124 303.02814Q60.128124 303.73126 60.846874 303.73126Q61.58125 303.73126 62.065624 303.02814Q62.565624 302.325 62.565624 300.21564Q62.565624 298.09064 62.065624 297.40314Q61.58125 296.7 60.83125 296.7Q60.1125 296.7 59.675 297.3094Q59.128124 298.09064 59.128124 300.21564ZM65.64375 304.45L65.64375 303.2469L66.84688 303.2469L66.84688 304.45L65.64375 304.45ZM68.05 300.21564Q68.05 298.6844 68.3625 297.7625Q68.675 296.825 69.28438 296.325Q69.90938 295.825 70.84688 295.825Q71.53438 295.825 72.05 296.10626Q72.58125 296.3875 72.925 296.91876Q73.26875 297.4344 73.45625 298.1844Q73.64375 298.9344 73.64375 300.21564Q73.64375 301.73126 73.33125 302.65314Q73.03438 303.575 72.40938 304.09064Q71.8 304.59064 70.84688 304.59064Q69.6125 304.59064 68.89375 303.7Q68.05 302.6375 68.05 300.21564ZM69.12813 300.21564Q69.12813 302.325 69.62813 303.02814Q70.12813 303.73126 70.84688 303.73126Q71.58125 303.73126 72.06563 303.02814Q72.56563 302.325 72.56563 300.21564Q72.56563 298.09064 72.06563 297.40314Q71.58125 296.7 70.83125 296.7Q70.1125 296.7 69.675 297.3094Q69.12813 298.09064 69.12813 300.21564ZM75.05 300.21564Q75.05 298.6844 75.3625 297.7625Q75.675 296.825 76.28438 296.325Q76.90938 295.825 77.84688 295.825Q78.53438 295.825 79.05 296.10626Q79.58125 296.3875 79.925 296.91876Q80.26875 297.4344 80.45625 298.1844Q80.64375 298.9344 80.64375 300.21564Q80.64375 301.73126 80.33125 302.65314Q80.03438 303.575 79.40938 304.09064Q78.8 304.59064 77.84688 304.59064Q76.6125 304.59064 75.89375 303.7Q75.05 302.6375 75.05 300.21564ZM76.12813 300.21564Q76.12813 302.325 76.62813 303.02814Q77.12813 303.73126 77.84688 303.73126Q78.58125 303.73126 79.06563 303.02814Q79.56563 302.325 79.56563 300.21564Q79.56563 298.09064 79.06563 297.40314Q78.58125 296.7 77.83125 296.7Q77.1125 296.7 76.675 297.3094Q76.12813 298.09064 76.12813 300.21564Z" fill-rule="nonzero"/><path fill="#000000" d="M56.596874 232.71216L56.596874 233.72778L50.909374 233.72778Q50.909374 233.35278 51.034374 232.99341Q51.253124 232.41528 51.721874 231.85278Q52.20625 231.29028 53.1125 230.55591Q54.51875 229.39966 55.003124 228.72778Q55.503124 228.05591 55.503124 227.46216Q55.503124 226.83716 55.05 226.41528Q54.596874 225.97778 53.878124 225.97778Q53.1125 225.97778 52.659374 226.43091Q52.20625 226.88403 52.190624 227.69653L51.1125 227.58716Q51.221874 226.36841 51.940624 225.74341Q52.675 225.10278 53.909374 225.10278Q55.14375 225.10278 55.8625 225.79028Q56.58125 226.47778 56.58125 227.49341Q56.58125 228.00903 56.3625 228.50903Q56.159374 228.99341 55.659374 229.55591Q55.175 230.10278 54.05 231.05591Q53.096874 231.85278 52.815624 232.14966Q52.55 232.43091 52.378124 232.71216L56.596874 232.71216ZM58.05 229.49341Q58.05 227.96216 58.3625 227.04028Q58.675 226.10278 59.284374 225.60278Q59.909374 225.10278 60.846874 225.10278Q61.534374 225.10278 62.05 225.38403Q62.58125 225.66528 62.925 226.19653Q63.26875 226.71216 63.45625 227.46216Q63.64375 228.21216 63.64375 229.49341Q63.64375 231.00903 63.33125 231.93091Q63.034374 232.85278 62.409374 233.36841Q61.8 233.86841 60.846874 233.86841Q59.6125 233.86841 58.89375 232.97778Q58.05 231.91528 58.05 229.49341ZM59.128124 229.49341Q59.128124 231.60278 59.628124 232.30591Q60.128124 233.00903 60.846874 233.00903Q61.58125 233.00903 62.065624 232.30591Q62.565624 231.60278 62.565624 229.49341Q62.565624 227.36841 62.065624 226.68091Q61.58125 225.97778 60.83125 225.97778Q60.1125 225.97778 59.675 226.58716Q59.128124 227.36841 59.128124 229.49341ZM65.64375 233.72778L65.64375 232.52466L66.84688 232.52466L66.84688 233.72778L65.64375 233.72778ZM68.05 229.49341Q68.05 227.96216 68.3625 227.04028Q68.675 226.10278 69.28438 225.60278Q69.90938 225.10278 70.84688 225.10278Q71.53438 225.10278 72.05 225.38403Q72.58125 225.66528 72.925 226.19653Q73.26875 226.71216 73.45625 227.46216Q73.64375 228.21216 73.64375 229.49341Q73.64375 231.00903 73.33125 231.93091Q73.03438 232.85278 72.40938 233.36841Q71.8 233.86841 70.84688 233.86841Q69.6125 233.86841 68.89375 232.97778Q68.05 231.91528 68.05 229.49341ZM69.12813 229.49341Q69.12813 231.60278 69.62813 232.30591Q70.12813 233.00903 70.84688 233.00903Q71.58125 233.00903 72.06563 232.30591Q72.56563 231.60278 72.56563 229.49341Q72.56563 227.36841 72.06563 226.68091Q71.58125 225.97778 70.83125 225.97778Q70.1125 225.97778 69.675 226.58716Q69.12813 227.36841 69.12813 229.49341ZM75.05 229.49341Q75.05 227.96216 75.3625 227.04028Q75.675 226.10278 76.28438 225.60278Q76.90938 225.10278 77.84688 225.10278Q78.53438 225.10278 79.05 225.38403Q79.58125 225.66528 79.925 226.19653Q80.26875 226.71216 80.45625 227.46216Q80.64375 228.21216 80.64375 229.49341Q80.64375 231.00903 80.33125 231.93091Q80.03438 232.85278 79.40938 233.36841Q78.8 233.86841 77.84688 233.86841Q76.6125 233.86841 75.89375 232.97778Q75.05 231.91528 75.05 229.49341ZM76.12813 229.49341Q76.12813 231.60278 76.62813 232.30591Q77.12813 233.00903 77.84688 233.00903Q78.58125 233.00903 79.06563 232.30591Q79.56563 231.60278 79.56563 229.49341Q79.56563 227.36841 79.06563 226.68091Q78.58125 225.97778 77.83125 225.97778Q77.1125 225.97778 76.675 226.58716Q76.12813 227.36841 76.12813 229.49341Z" fill-rule="nonzero"/><path fill="#000000" d="M54.425 163.00555L54.425 160.94305L50.70625 160.94305L50.70625 159.9743L54.628124 154.4118L55.4875 154.4118L55.4875 159.9743L56.64375 159.9743L56.64375 160.94305L55.4875 160.94305L55.4875 163.00555L54.425 163.00555ZM54.425 159.9743L54.425 156.11493L51.7375 159.9743L54.425 159.9743ZM58.05 158.77118Q58.05 157.23993 58.3625 156.31805Q58.675 155.38055 59.284374 154.88055Q59.909374 154.38055 60.846874 154.38055Q61.534374 154.38055 62.05 154.6618Q62.58125 154.94305 62.925 155.4743Q63.26875 155.98993 63.45625 156.73993Q63.64375 157.48993 63.64375 158.77118Q63.64375 160.2868 63.33125 161.20868Q63.034374 162.13055 62.409374 162.64618Q61.8 163.14618 60.846874 163.14618Q59.6125 163.14618 58.89375 162.25555Q58.05 161.19305 58.05 158.77118ZM59.128124 158.77118Q59.128124 160.88055 59.628124 161.58368Q60.128124 162.2868 60.846874 162.2868Q61.58125 162.2868 62.065624 161.58368Q62.565624 160.88055 62.565624 158.77118Q62.565624 156.64618 62.065624 155.95868Q61.58125 155.25555 60.83125 155.25555Q60.1125 155.25555 59.675 155.86493Q59.128124 156.64618 59.128124 158.77118ZM65.64375 163.00555L65.64375 161.80243L66.84688 161.80243L66.84688 163.00555L65.64375 163.00555ZM68.05 158.77118Q68.05 157.23993 68.3625 156.31805Q68.675 155.38055 69.28438 154.88055Q69.90938 154.38055 70.84688 154.38055Q71.53438 154.38055 72.05 154.6618Q72.58125 154.94305 72.925 155.4743Q73.26875 155.98993 73.45625 156.73993Q73.64375 157.48993 73.64375 158.77118Q73.64375 160.2868 73.33125 161.20868Q73.03438 162.13055 72.40938 162.64618Q71.8 163.14618 70.84688 163.14618Q69.6125 163.14618 68.89375 162.25555Q68.05 161.19305 68.05 158.77118ZM69.12813 158.77118Q69.12813 160.88055 69.62813 161.58368Q70.12813 162.2868 70.84688 162.2868Q71.58125 162.2868 72.06563 161.58368Q72.56563 160.88055 72.56563 158.77118Q72.56563 156.64618 72.06563 155.95868Q71.58125 155.25555 70.83125 155.25555Q70.1125 155.25555 69.675 155.86493Q69.12813 156.64618 69.12813 158.77118ZM75.05 158.77118Q75.05 157.23993 75.3625 156.31805Q75.675 155.38055 76.28438 154.88055Q76.90938 154.38055 77.84688 154.38055Q78.53438 154.38055 79.05 154.6618Q79.58125 154.94305 79.925 155.4743Q80.26875 155.98993 80.45625 156.73993Q80.64375 157.48993 80.64375 158.77118Q80.64375 160.2868 80.33125 161.20868Q80.03438 162.13055 79.40938 162.64618Q78.8 163.14618 77.84688 163.14618Q76.6125 163.14618 75.89375 162.25555Q75.05 161.19305 75.05 158.77118ZM76.12813 158.77118Q76.12813 160.88055 76.62813 161.58368Q77.12813 162.2868 77.84688 162.2868Q78.58125 162.2868 79.06563 161.58368Q79.56563 160.88055 79.56563 158.77118Q79.56563 156.64618 79.06563 155.95868Q78.58125 155.25555 77.83125 155.25555Q77.1125 155.25555 76.675 155.86493Q76.12813 156.64618 76.12813 158.77118Z" fill-rule="nonzero"/><path fill="#000000" d="M56.51875 85.79896L55.471874 85.87708Q55.33125 85.25208 55.08125 84.97083Q54.64375 84.51771 54.01875 84.51771Q53.51875 84.51771 53.128124 84.79896Q52.64375 85.17396 52.346874 85.87708Q52.065624 86.56458 52.05 87.84583Q52.425 87.26771 52.971874 86.98646Q53.534374 86.70521 54.14375 86.70521Q55.190624 86.70521 55.925 87.48646Q56.675 88.26771 56.675 89.48646Q56.675 90.29896 56.315624 91.00208Q55.971874 91.68958 55.3625 92.06458Q54.753124 92.42396 53.9875 92.42396Q52.659374 92.42396 51.83125 91.45521Q51.003124 90.48646 51.003124 88.26771Q51.003124 85.76771 51.925 84.64271Q52.721874 83.65833 54.08125 83.65833Q55.096874 83.65833 55.7375 84.23646Q56.39375 84.79896 56.51875 85.79896ZM52.221874 89.50208Q52.221874 90.04896 52.440624 90.54896Q52.675 91.03333 53.08125 91.29896Q53.503124 91.56458 53.971874 91.56458Q54.628124 91.56458 55.1125 91.03333Q55.596874 90.48646 55.596874 89.56458Q55.596874 88.67396 55.1125 88.15833Q54.64375 87.64271 53.925 87.64271Q53.20625 87.64271 52.70625 88.15833Q52.221874 88.67396 52.221874 89.50208ZM58.05 88.04896Q58.05 86.51771 58.3625 85.59583Q58.675 84.65833 59.284374 84.15833Q59.909374 83.65833 60.846874 83.65833Q61.534374 83.65833 62.05 83.93958Q62.58125 84.22083 62.925 84.75208Q63.26875 85.26771 63.45625 86.01771Q63.64375 86.76771 63.64375 88.04896Q63.64375 89.56458 63.33125 90.48646Q63.034374 91.40833 62.409374 91.92396Q61.8 92.42396 60.846874 92.42396Q59.6125 92.42396 58.89375 91.53333Q58.05 90.47083 58.05 88.04896ZM59.128124 88.04896Q59.128124 90.15833 59.628124 90.86146Q60.128124 91.56458 60.846874 91.56458Q61.58125 91.56458 62.065624 90.86146Q62.565624 90.15833 62.565624 88.04896Q62.565624 85.92396 62.065624 85.23646Q61.58125 84.53333 60.83125 84.53333Q60.1125 84.53333 59.675 85.14271Q59.128124 85.92396 59.128124 88.04896ZM65.64375 92.28333L65.64375 91.08021L66.84688 91.08021L66.84688 92.28333L65.64375 92.28333ZM68.05 88.04896Q68.05 86.51771 68.3625 85.59583Q68.675 84.65833 69.28438 84.15833Q69.90938 83.65833 70.84688 83.65833Q71.53438 83.65833 72.05 83.93958Q72.58125 84.22083 72.925 84.75208Q73.26875 85.26771 73.45625 86.01771Q73.64375 86.76771 73.64375 88.04896Q73.64375 89.56458 73.33125 90.48646Q73.03438 91.40833 72.40938 91.92396Q71.8 92.42396 70.84688 92.42396Q69.6125 92.42396 68.89375 91.53333Q68.05 90.47083 68.05 88.04896ZM69.12813 88.04896Q69.12813 90.15833 69.62813 90.86146Q70.12813 91.56458 70.84688 91.56458Q71.58125 91.56458 72.06563 90.86146Q72.56563 90.15833 72.56563 88.04896Q72.56563 85.92396 72.06563 85.23646Q71.58125 84.53333 70.83125 84.53333Q70.1125 84.53333 69.675 85.14271Q69.12813 85.92396 69.12813 88.04896ZM75.05 88.04896Q75.05 86.51771 75.3625 85.59583Q75.675 84.65833 76.28438 84.15833Q76.90938 83.65833 77.84688 83.65833Q78.53438 83.65833 79.05 83.93958Q79.58125 84.22083 79.925 84.75208Q80.26875 85.26771 80.45625 86.01771Q80.64375 86.76771 80.64375 88.04896Q80.64375 89.56458 80.33125 90.48646Q80.03438 91.40833 79.40938 91.92396Q78.8 92.42396 77.84688 92.42396Q76.6125 92.42396 75.89375 91.53333Q75.05 90.47083 75.05 88.04896ZM76.12813 88.04896Q76.12813 90.15833 76.62813 90.86146Q77.12813 91.56458 77.84688 91.56458Q78.58125 91.56458 79.06563 90.86146Q79.56563 90.15833 79.56563 88.04896Q79.56563 85.92396 79.06563 85.23646Q78.58125 84.53333 77.83125 84.53333Q77.1125 84.53333 76.675 85.14271Q76.12813 85.92396 76.12813 88.04896Z" fill-rule="nonzero"/><path fill="#000000" d="M131.075 312.79376Q130.41875 312.54376 130.09062 312.10626Q129.77812 311.65314 129.77812 311.04376Q129.77812 310.10626 130.45 309.46564Q131.1375 308.825 132.24687 308.825Q133.37187 308.825 134.05937 309.48126Q134.74687 310.1375 134.74687 311.075Q134.74687 311.66876 134.43437 312.10626Q134.12187 312.54376 133.48125 312.79376Q134.27812 313.04376 134.68437 313.6219Q135.09062 314.2 135.09062 314.9969Q135.09062 316.09064 134.30937 316.84064Q133.54375 317.59064 132.2625 317.59064Q130.99687 317.59064 130.21562 316.84064Q129.43437 316.09064 129.43437 314.96564Q129.43437 314.1219 129.85625 313.5594Q130.29375 312.9969 131.075 312.79376ZM130.85625 310.9969Q130.85625 311.60626 131.24687 311.9969Q131.65312 312.3875 132.27812 312.3875Q132.8875 312.3875 133.27812 312.0125Q133.66875 311.6219 133.66875 311.0594Q133.66875 310.48126 133.2625 310.09064Q132.85625 309.6844 132.2625 309.6844Q131.65312 309.6844 131.24687 310.075Q130.85625 310.46564 130.85625 310.9969ZM130.52812 314.96564Q130.52812 315.41876 130.73125 315.84064Q130.95 316.2625 131.37187 316.4969Q131.79375 316.73126 132.27812 316.73126Q133.02812 316.73126 133.5125 316.2469Q134.0125 315.7625 134.0125 315.0125Q134.0125 314.2469 133.5125 313.7469Q133.0125 313.2469 132.24687 313.2469Q131.49687 313.2469 131.0125 313.7469Q130.52812 314.23126 130.52812 314.96564Z" fill-rule="nonzero"/><path fill="#000000" d="M219.71875 317.45L218.67188 317.45L218.67188 310.73126Q218.28125 311.09064 217.65625 311.46564Q217.04688 311.825 216.5625 311.9969L216.5625 310.98126Q217.4375 310.5594 218.09375 309.98126Q218.76562 309.3875 219.04688 308.825L219.71875 308.825L219.71875 317.45ZM222.75 313.21564Q222.75 311.6844 223.0625 310.7625Q223.375 309.825 223.98438 309.325Q224.60938 308.825 225.54688 308.825Q226.23438 308.825 226.75 309.10626Q227.28125 309.3875 227.625 309.91876Q227.96875 310.4344 228.15625 311.1844Q228.34375 311.9344 228.34375 313.21564Q228.34375 314.73126 228.03125 315.65314Q227.73438 316.575 227.10938 317.09064Q226.5 317.59064 225.54688 317.59064Q224.3125 317.59064 223.59375 316.7Q222.75 315.6375 222.75 313.21564ZM223.82812 313.21564Q223.82812 315.325 224.32812 316.02814Q224.82812 316.73126 225.54688 316.73126Q226.28125 316.73126 226.76562 316.02814Q227.26562 315.325 227.26562 313.21564Q227.26562 311.09064 226.76562 310.40314Q226.28125 309.7 225.53125 309.7Q224.8125 309.7 224.375 310.3094Q223.82812 311.09064 223.82812 313.21564Z" fill-rule="nonzero"/><path fill="#000000" d="M309.51874 317.45L308.47186 317.45L308.47186 310.73126Q308.08124 311.09064 307.45624 311.46564Q306.84686 311.825 306.3625 311.9969L306.3625 310.98126Q307.2375 310.5594 307.89374 309.98126Q308.5656 309.3875 308.84686 308.825L309.51874 308.825L309.51874 317.45ZM318.09686 316.4344L318.09686 317.45L312.40936 317.45Q312.40936 317.075 312.53436 316.71564Q312.7531 316.1375 313.22186 315.575Q313.70624 315.0125 314.6125 314.27814Q316.01874 313.1219 316.5031 312.45Q317.0031 311.77814 317.0031 311.1844Q317.0031 310.5594 316.55 310.1375Q316.09686 309.7 315.3781 309.7Q314.6125 309.7 314.15936 310.15314Q313.70624 310.60626 313.6906 311.41876L312.6125 311.3094Q312.72186 310.09064 313.4406 309.46564Q314.175 308.825 315.40936 308.825Q316.64374 308.825 317.3625 309.5125Q318.08124 310.2 318.08124 311.21564Q318.08124 311.73126 317.8625 312.23126Q317.65936 312.71564 317.15936 313.27814Q316.675 313.825 315.55 314.77814Q314.59686 315.575 314.3156 315.8719Q314.05 316.15314 313.8781 316.4344L318.09686 316.4344Z" fill-rule="nonzero"/><path fill="#000000" d="M399.31876 317.45L398.27188 317.45L398.27188 310.73126Q397.88126 311.09064 397.25626 311.46564Q396.64688 311.825 396.1625 311.9969L396.1625 310.98126Q397.0375 310.5594 397.69376 309.98126Q398.36563 309.3875 398.64688 308.825L399.31876 308.825L399.31876 317.45ZM405.725 317.45L405.725 315.3875L402.00626 315.3875L402.00626 314.41876L405.92813 308.85626L406.7875 308.85626L406.7875 314.41876L407.94376 314.41876L407.94376 315.3875L406.7875 315.3875L406.7875 317.45L405.725 317.45ZM405.725 314.41876L405.725 310.5594L403.0375 314.41876L405.725 314.41876Z" fill-rule="nonzero"/><path fill="#000000" d="M489.11874 317.45L488.07187 317.45L488.07187 310.73126Q487.68124 311.09064 487.05624 311.46564Q486.44687 311.825 485.9625 311.9969L485.9625 310.98126Q486.8375 310.5594 487.49374 309.98126Q488.16562 309.3875 488.44687 308.825L489.11874 308.825L489.11874 317.45ZM497.61874 310.96564L496.57187 311.04376Q496.43124 310.41876 496.18124 310.1375Q495.74374 309.6844 495.11874 309.6844Q494.61874 309.6844 494.22812 309.96564Q493.74374 310.34064 493.44687 311.04376Q493.16562 311.73126 493.15 313.0125Q493.525 312.4344 494.07187 312.15314Q494.63437 311.8719 495.24374 311.8719Q496.29062 311.8719 497.025 312.65314Q497.775 313.4344 497.775 314.65314Q497.775 315.46564 497.41562 316.16876Q497.07187 316.85626 496.4625 317.23126Q495.85312 317.59064 495.0875 317.59064Q493.75937 317.59064 492.93124 316.6219Q492.10312 315.65314 492.10312 313.4344Q492.10312 310.9344 493.025 309.8094Q493.82187 308.825 495.18124 308.825Q496.19687 308.825 496.8375 309.40314Q497.49374 309.96564 497.61874 310.96564ZM493.32187 314.66876Q493.32187 315.21564 493.54062 315.71564Q493.775 316.2 494.18124 316.46564Q494.60312 316.73126 495.07187 316.73126Q495.72812 316.73126 496.2125 316.2Q496.69687 315.65314 496.69687 314.73126Q496.69687 313.84064 496.2125 313.325Q495.74374 312.8094 495.025 312.8094Q494.30624 312.8094 493.80624 313.325Q493.32187 313.84064 493.32187 314.66876Z" fill-rule="nonzero"/><path fill="#000000" d="M578.91876 317.45L577.8719 317.45L577.8719 310.73126Q577.48126 311.09064 576.85626 311.46564Q576.2469 311.825 575.7625 311.9969L575.7625 310.98126Q576.6375 310.5594 577.29376 309.98126Q577.96564 309.3875 578.2469 308.825L578.91876 308.825L578.91876 317.45ZM583.575 312.79376Q582.91876 312.54376 582.59064 312.10626Q582.27814 311.65314 582.27814 311.04376Q582.27814 310.10626 582.95 309.46564Q583.6375 308.825 584.7469 308.825Q585.8719 308.825 586.5594 309.48126Q587.2469 310.1375 587.2469 311.075Q587.2469 311.66876 586.9344 312.10626Q586.6219 312.54376 585.98126 312.79376Q586.77814 313.04376 587.1844 313.6219Q587.59064 314.2 587.59064 314.9969Q587.59064 316.09064 586.8094 316.84064Q586.04376 317.59064 584.7625 317.59064Q583.4969 317.59064 582.71564 316.84064Q581.9344 316.09064 581.9344 314.96564Q581.9344 314.1219 582.35626 313.5594Q582.79376 312.9969 583.575 312.79376ZM583.35626 310.9969Q583.35626 311.60626 583.7469 311.9969Q584.15314 312.3875 584.77814 312.3875Q585.3875 312.3875 585.77814 312.0125Q586.16876 311.6219 586.16876 311.0594Q586.16876 310.48126 585.7625 310.09064Q585.35626 309.6844 584.7625 309.6844Q584.15314 309.6844 583.7469 310.075Q583.35626 310.46564 583.35626 310.9969ZM583.02814 314.96564Q583.02814 315.41876 583.23126 315.84064Q583.45 316.2625 583.8719 316.4969Q584.29376 316.73126 584.77814 316.73126Q585.52814 316.73126 586.0125 316.2469Q586.5125 315.7625 586.5125 315.0125Q586.5125 314.2469 586.0125 313.7469Q585.5125 313.2469 584.7469 313.2469Q583.9969 313.2469 583.5125 313.7469Q583.02814 314.23126 583.02814 314.96564Z" fill-rule="nonzero"/><path stroke="#4285f4" stroke-width="4.0" stroke-linecap="butt" d="M222.5 61.916668L234.5 61.916668" fill-rule="nonzero"/><path fill="#1a1a1a" d="M244.4375 65.916664L242.53125 59.697914L243.625 59.697914L244.60938 63.291664L244.98438 64.61979Q245.01562 64.52604 245.3125 63.33854L246.29688 59.697914L247.375 59.697914L248.3125 63.30729L248.625 64.49479L248.98438 63.291664L250.04688 59.697914L251.07812 59.697914L249.125 65.916664L248.03125 65.916664L247.04688 62.18229L246.79688 61.135414L245.54688 65.916664L244.4375 65.916664ZM256.54688 63.916664L257.64062 64.041664Q257.39062 64.99479 256.6875 65.52604Q255.98438 66.05729 254.90625 66.05729Q253.54688 66.05729 252.73438 65.21354Q251.9375 64.36979 251.9375 62.854164Q251.9375 61.291664 252.75 60.43229Q253.5625 59.55729 254.84375 59.55729Q256.09375 59.55729 256.875 60.40104Q257.67188 61.24479 257.67188 62.791664Q257.67188 62.885414 257.67188 63.072914L253.03125 63.072914Q253.09375 64.104164 253.60938 64.65104Q254.125 65.18229 254.90625 65.18229Q255.48438 65.18229 255.89062 64.885414Q256.3125 64.572914 256.54688 63.916664ZM253.09375 62.21354L256.5625 62.21354Q256.5 61.416664 256.17188 61.02604Q255.65625 60.416664 254.85938 60.416664Q254.125 60.416664 253.625 60.90104Q253.14062 61.385414 253.09375 62.21354ZM263.54688 63.916664L264.64062 64.041664Q264.39062 64.99479 263.6875 65.52604Q262.98438 66.05729 261.90625 66.05729Q260.54688 66.05729 259.73438 65.21354Q258.9375 64.36979 258.9375 62.854164Q258.9375 61.291664 259.75 60.43229Q260.5625 59.55729 261.84375 59.55729Q263.09375 59.55729 263.875 60.40104Q264.67188 61.24479 264.67188 62.791664Q264.67188 62.885414 264.67188 63.072914L260.03125 63.072914Q260.09375 64.104164 260.60938 64.65104Q261.125 65.18229 261.90625 65.18229Q262.48438 65.18229 262.89062 64.885414Q263.3125 64.572914 263.54688 63.916664ZM260.09375 62.21354L263.5625 62.21354Q263.5 61.416664 263.17188 61.02604Q262.65625 60.416664 261.85938 60.416664Q261.125 60.416664 260.625 60.90104Q260.14062 61.385414 260.09375 62.21354ZM266.29688 65.916664L266.29688 57.322914L267.35938 57.322914L267.35938 62.229164L269.84375 59.697914L271.21875 59.697914L268.82812 61.99479L271.45312 65.916664L270.15625 65.916664L268.09375 62.729164L267.35938 63.447914L267.35938 65.916664L266.29688 65.916664ZM276.32812 65.916664L276.32812 65.135414Q275.73438 66.05729 274.59375 66.05729Q273.84375 66.05729 273.21875 65.65104Q272.59375 65.229164 272.25 64.49479Q271.90625 63.760414 271.90625 62.80729Q271.90625 61.885414 272.21875 61.11979Q272.53125 60.354164 273.15625 59.96354Q273.78125 59.55729 274.54688 59.55729Q275.10938 59.55729 275.54688 59.791664Q275.98438 60.02604 276.26562 60.40104L276.26562 57.322914L277.3125 57.322914L277.3125 65.916664L276.32812 65.916664ZM273.0 62.80729Q273.0 64.010414 273.5 64.604164Q274.0 65.18229 274.6875 65.18229Q275.375 65.18229 275.85938 64.61979Q276.34375 64.05729 276.34375 62.90104Q276.34375 61.61979 275.84375 61.02604Q275.35938 60.43229 274.64062 60.43229Q273.9375 60.43229 273.46875 61.010414Q273.0 61.572914 273.0 62.80729ZM283.35938 65.15104Q282.76562 65.65104 282.21875 65.854164Q281.6875 66.05729 281.0625 66.05729Q280.03125 66.05729 279.48438 65.55729Q278.9375 65.05729 278.9375 64.27604Q278.9375 63.822914 279.14062 63.447914Q279.34375 63.05729 279.6875 62.83854Q280.03125 62.604164 280.45312 62.49479Q280.75 62.40104 281.39062 62.322914Q282.65625 62.18229 283.26562 61.96354Q283.26562 61.74479 283.26562 61.697914Q283.26562 61.041664 282.96875 60.77604Q282.5625 60.43229 281.76562 60.43229Q281.03125 60.43229 280.67188 60.697914Q280.3125 60.947914 280.14062 61.604164L279.10938 61.46354Q279.25 60.80729 279.57812 60.40104Q279.90625 59.99479 280.51562 59.77604Q281.125 59.55729 281.92188 59.55729Q282.71875 59.55729 283.21875 59.74479Q283.71875 59.93229 283.95312 60.21354Q284.1875 60.49479 284.28125 60.93229Q284.32812 61.197914 284.32812 61.90104L284.32812 63.30729Q284.32812 64.77604 284.39062 65.166664Q284.46875 65.55729 284.67188 65.916664L283.5625 65.916664Q283.40625 65.58854 283.35938 65.15104ZM283.26562 62.791664Q282.6875 63.02604 281.54688 63.197914Q280.89062 63.291664 280.625 63.416664Q280.35938 63.52604 280.20312 63.74479Q280.0625 63.96354 280.0625 64.24479Q280.0625 64.666664 280.375 64.947914Q280.70312 65.229164 281.3125 65.229164Q281.92188 65.229164 282.39062 64.96354Q282.875 64.697914 283.09375 64.229164Q283.26562 63.86979 283.26562 63.18229L283.26562 62.791664ZM286.25 68.30729L286.125 67.322914Q286.46875 67.416664 286.73438 67.416664Q287.07812 67.416664 287.28125 67.291664Q287.5 67.18229 287.64062 66.979164Q287.73438 66.80729 287.96875 66.18229Q287.98438 66.104164 288.0625 65.93229L285.6875 59.697914L286.82812 59.697914L288.125 63.291664Q288.375 63.979164 288.57812 64.74479Q288.76562 64.010414 289.01562 63.322914L290.34375 59.697914L291.39062 59.697914L289.03125 66.02604Q288.64062 67.041664 288.4375 67.43229Q288.15625 67.96354 287.78125 68.197914Q287.42188 68.447914 286.92188 68.447914Q286.625 68.447914 286.25 68.30729Z" fill-rule="nonzero"/><path stroke="#ea4335" stroke-width="4.0" stroke-linecap="butt" d="M307.5 61.916668L319.5 61.916668" fill-rule="nonzero"/><path fill="#1a1a1a" d="M329.4375 65.916664L327.53125 59.697914L328.625 59.697914L329.60938 63.291664L329.98438 64.61979Q330.01562 64.52604 330.3125 63.33854L331.29688 59.697914L332.375 59.697914L333.3125 63.30729L333.625 64.49479L333.98438 63.291664L335.04688 59.697914L336.07812 59.697914L334.125 65.916664L333.03125 65.916664L332.04688 62.18229L331.79688 61.135414L330.54688 65.916664L329.4375 65.916664ZM341.54688 63.916664L342.64062 64.041664Q342.39062 64.99479 341.6875 65.52604Q340.98438 66.05729 339.90625 66.05729Q338.54688 66.05729 337.73438 65.21354Q336.9375 64.36979 336.9375 62.854164Q336.9375 61.291664 337.75 60.43229Q338.5625 59.55729 339.84375 59.55729Q341.09375 59.55729 341.875 60.40104Q342.67188 61.24479 342.67188 62.791664Q342.67188 62.885414 342.67188 63.072914L338.03125 63.072914Q338.09375 64.104164 338.60938 64.65104Q339.125 65.18229 339.90625 65.18229Q340.48438 65.18229 340.89062 64.885414Q341.3125 64.572914 341.54688 63.916664ZM338.09375 62.21354L341.5625 62.21354Q341.5 61.416664 341.17188 61.02604Q340.65625 60.416664 339.85938 60.416664Q339.125 60.416664 338.625 60.90104Q338.14062 61.385414 338.09375 62.21354ZM348.54688 63.916664L349.64062 64.041664Q349.39062 64.99479 348.6875 65.52604Q347.98438 66.05729 346.90625 66.05729Q345.54688 66.05729 344.73438 65.21354Q343.9375 64.36979 343.9375 62.854164Q343.9375 61.291664 344.75 60.43229Q345.5625 59.55729 346.84375 59.55729Q348.09375 59.55729 348.875 60.40104Q349.67188 61.24479 349.67188 62.791664Q349.67188 62.885414 349.67188 63.072914L345.03125 63.072914Q345.09375 64.104164 345.60938 64.65104Q346.125 65.18229 346.90625 65.18229Q347.48438 65.18229 347.89062 64.885414Q348.3125 64.572914 348.54688 63.916664ZM345.09375 62.21354L348.5625 62.21354Q348.5 61.416664 348.17188 61.02604Q347.65625 60.416664 346.85938 60.416664Q346.125 60.416664 345.625 60.90104Q345.14062 61.385414 345.09375 62.21354ZM351.29688 65.916664L351.29688 57.322914L352.35938 57.322914L352.35938 62.229164L354.84375 59.697914L356.21875 59.697914L353.82812 61.99479L356.45312 65.916664L355.15625 65.916664L353.09375 62.729164L352.35938 63.447914L352.35938 65.916664L351.29688 65.916664ZM361.54688 63.916664L362.64062 64.041664Q362.39062 64.99479 361.6875 65.52604Q360.98438 66.05729 359.90625 66.05729Q358.54688 66.05729 357.73438 65.21354Q356.9375 64.36979 356.9375 62.854164Q356.9375 61.291664 357.75 60.43229Q358.5625 59.55729 359.84375 59.55729Q361.09375 59.55729 361.875 60.40104Q362.67188 61.24479 362.67188 62.791664Q362.67188 62.885414 362.67188 63.072914L358.03125 63.072914Q358.09375 64.104164 358.60938 64.65104Q359.125 65.18229 359.90625 65.18229Q360.48438 65.18229 360.89062 64.885414Q361.3125 64.572914 361.54688 63.916664ZM358.09375 62.21354L361.5625 62.21354Q361.5 61.416664 361.17188 61.02604Q360.65625 60.416664 359.85938 60.416664Q359.125 60.416664 358.625 60.90104Q358.14062 61.385414 358.09375 62.21354ZM364.29688 65.916664L364.29688 59.697914L365.23438 59.697914L365.23438 60.572914Q365.92188 59.55729 367.21875 59.55729Q367.78125 59.55729 368.25 59.760414Q368.73438 59.96354 368.96875 60.291664Q369.20312 60.61979 369.29688 61.05729Q369.34375 61.354164 369.34375 62.08854L369.34375 65.916664L368.29688 65.916664L368.29688 62.135414Q368.29688 61.479164 368.17188 61.166664Q368.04688 60.854164 367.73438 60.666664Q367.42188 60.46354 367.0 60.46354Q366.32812 60.46354 365.82812 60.90104Q365.34375 61.322914 365.34375 62.510414L365.34375 65.916664L364.29688 65.916664ZM375.32812 65.916664L375.32812 65.135414Q374.73438 66.05729 373.59375 66.05729Q372.84375 66.05729 372.21875 65.65104Q371.59375 65.229164 371.25 64.49479Q370.90625 63.760414 370.90625 62.80729Q370.90625 61.885414 371.21875 61.11979Q371.53125 60.354164 372.15625 59.96354Q372.78125 59.55729 373.54688 59.55729Q374.10938 59.55729 374.54688 59.791664Q374.98438 60.02604 375.26562 60.40104L375.26562 57.322914L376.3125 57.322914L376.3125 65.916664L375.32812 65.916664ZM372.0 62.80729Q372.0 64.010414 372.5 64.604164Q373.0 65.18229 373.6875 65.18229Q374.375 65.18229 374.85938 64.61979Q375.34375 64.05729 375.34375 62.90104Q375.34375 61.61979 374.84375 61.02604Q374.35938 60.43229 373.64062 60.43229Q372.9375 60.43229 372.46875 61.010414Q372.0 61.572914 372.0 62.80729Z" fill-rule="nonzero"/><path fill="#757575" d="M23.7375 37.55L23.7375 24.925L19.01875 24.925L19.01875 23.2375L30.3625 23.2375L30.3625 24.925L25.628124 24.925L25.628124 37.55L23.7375 37.55ZM31.846874 37.55L31.846874 27.175L33.425 27.175L33.425 28.753124Q34.034374 27.64375 34.55 27.3Q35.065624 26.940624 35.675 26.940624Q36.565624 26.940624 37.4875 27.503124L36.878124 29.14375Q36.2375 28.753124 35.596874 28.753124Q35.01875 28.753124 34.55 29.1125Q34.096874 29.45625 33.89375 30.065624Q33.6125 31.003124 33.6125 32.1125L33.6125 37.55L31.846874 37.55ZM45.64375 36.26875Q44.659374 37.096874 43.753124 37.440624Q42.846874 37.784374 41.815624 37.784374Q40.1125 37.784374 39.190624 36.95625Q38.26875 36.1125 38.26875 34.815624Q38.26875 34.05 38.6125 33.425Q38.971874 32.8 39.534374 32.425Q40.096874 32.034374 40.8 31.83125Q41.315624 31.70625 42.3625 31.565624Q44.4875 31.315624 45.4875 30.971874Q45.503124 30.6125 45.503124 30.503124Q45.503124 29.440624 45.003124 28.9875Q44.33125 28.39375 43.003124 28.39375Q41.753124 28.39375 41.159374 28.83125Q40.58125 29.26875 40.3 30.378124L38.58125 30.14375Q38.815624 29.034374 39.346874 28.3625Q39.878124 27.675 40.89375 27.315624Q41.909374 26.940624 43.253124 26.940624Q44.58125 26.940624 45.409374 27.253124Q46.2375 27.565624 46.628124 28.05Q47.01875 28.51875 47.175 29.2375Q47.26875 29.690624 47.26875 30.8625L47.26875 33.20625Q47.26875 35.659374 47.378124 36.315624Q47.4875 36.95625 47.83125 37.55L45.9875 37.55Q45.721874 37.003124 45.64375 36.26875ZM45.4875 32.346874Q44.534374 32.7375 42.6125 33.003124Q41.534374 33.159374 41.08125 33.3625Q40.64375 33.55 40.39375 33.925Q40.14375 34.3 40.14375 34.76875Q40.14375 35.471874 40.675 35.940624Q41.20625 36.409374 42.2375 36.409374Q43.253124 36.409374 44.034374 35.971874Q44.83125 35.51875 45.20625 34.753124Q45.4875 34.14375 45.4875 32.9875L45.4875 32.346874ZM50.284374 37.55L50.284374 28.55L48.7375 28.55L48.7375 27.175L50.284374 27.175L50.284374 26.08125Q50.284374 25.034374 50.471874 24.51875Q50.721874 23.83125 51.3625 23.409374Q52.003124 22.9875 53.159374 22.9875Q53.909374 22.9875 54.8 23.159374L54.534374 24.690624Q53.9875 24.596874 53.503124 24.596874Q52.70625 24.596874 52.3625 24.940624Q52.034374 25.284374 52.034374 26.221874L52.034374 27.175L54.065624 27.175L54.065624 28.55L52.034374 28.55L52.034374 37.55L50.284374 37.55ZM56.284374 37.55L56.284374 28.55L54.7375 28.55L54.7375 27.175L56.284374 27.175L56.284374 26.08125Q56.284374 25.034374 56.471874 24.51875Q56.721874 23.83125 57.3625 23.409374Q58.003124 22.9875 59.159374 22.9875Q59.909374 22.9875 60.8 23.159374L60.534374 24.690624Q59.9875 24.596874 59.503124 24.596874Q58.70625 24.596874 58.3625 24.940624Q58.034374 25.284374 58.034374 26.221874L58.034374 27.175L60.065624 27.175L60.065624 28.55L58.034374 28.55L58.034374 37.55L56.284374 37.55ZM61.878124 25.253124L61.878124 23.2375L63.64375 23.2375L63.64375 25.253124L61.878124 25.253124ZM61.878124 37.55L61.878124 27.175L63.64375 27.175L63.64375 37.55L61.878124 37.55ZM72.64375 33.753124L74.3625 33.971874Q74.08125 35.76875 72.90938 36.784374Q71.75313 37.784374 70.05 37.784374Q67.925 37.784374 66.62813 36.39375Q65.33125 35.003124 65.33125 32.409374Q65.33125 30.721874 65.87813 29.471874Q66.44063 28.20625 67.58125 27.58125Q68.72188 26.940624 70.06563 26.940624Q71.75313 26.940624 72.81563 27.8Q73.89375 28.659374 74.20625 30.221874L72.4875 30.4875Q72.25313 29.440624 71.62813 28.925Q71.00313 28.39375 70.12813 28.39375Q68.8 28.39375 67.97188 29.346874Q67.14375 30.3 67.14375 32.346874Q67.14375 34.440624 67.94063 35.39375Q68.7375 36.33125 70.03438 36.33125Q71.06563 36.33125 71.75313 35.70625Q72.45625 35.065624 72.64375 33.753124ZM88.59688 37.55L88.59688 36.2375Q87.6125 37.784374 85.69063 37.784374Q84.45625 37.784374 83.40938 37.096874Q82.37813 36.409374 81.8 35.190624Q81.2375 33.971874 81.2375 32.378124Q81.2375 30.815624 81.75313 29.55Q82.26875 28.284374 83.3 27.6125Q84.34688 26.940624 85.6125 26.940624Q86.55 26.940624 87.28438 27.346874Q88.01875 27.7375 88.4875 28.3625L88.4875 23.2375L90.22188 23.2375L90.22188 37.55L88.59688 37.55ZM83.03438 32.378124Q83.03438 34.3625 83.87813 35.346874Q84.72188 36.33125 85.8625 36.33125Q87.01875 36.33125 87.81563 35.39375Q88.62813 34.45625 88.62813 32.51875Q88.62813 30.39375 87.8 29.39375Q86.9875 28.39375 85.78438 28.39375Q84.6125 28.39375 83.81563 29.3625Q83.03438 30.315624 83.03438 32.378124ZM92.87813 25.253124L92.87813 23.2375L94.64375 23.2375L94.64375 25.253124L92.87813 25.253124ZM92.87813 37.55L92.87813 27.175L94.64375 27.175L94.64375 37.55L92.87813 37.55ZM96.15938 34.45625L97.90938 34.175Q98.05 35.221874 98.72188 35.784374Q99.39375 36.33125 100.59688 36.33125Q101.8 36.33125 102.37813 35.846874Q102.97188 35.346874 102.97188 34.690624Q102.97188 34.096874 102.45625 33.753124Q102.09688 33.51875 100.65938 33.159374Q98.72188 32.659374 97.97188 32.315624Q97.2375 31.95625 96.84688 31.33125Q96.45625 30.690624 96.45625 29.925Q96.45625 29.2375 96.76875 28.64375Q97.09688 28.05 97.64375 27.659374Q98.05 27.3625 98.75313 27.159374Q99.47188 26.940624 100.28438 26.940624Q101.50313 26.940624 102.425 27.3Q103.34688 27.64375 103.78438 28.253124Q104.22188 28.846874 104.39375 29.846874L102.675 30.08125Q102.55 29.284374 101.9875 28.846874Q101.425 28.39375 100.40938 28.39375Q99.19063 28.39375 98.675 28.8Q98.15938 29.190624 98.15938 29.721874Q98.15938 30.065624 98.37813 30.346874Q98.58125 30.628124 99.05 30.815624Q99.31563 30.909374 100.59688 31.253124Q102.47188 31.753124 103.20625 32.08125Q103.94063 32.39375 104.3625 33.003124Q104.78438 33.596874 104.78438 34.503124Q104.78438 35.378124 104.26875 36.159374Q103.75313 36.940624 102.78438 37.3625Q101.81563 37.784374 100.59688 37.784374Q98.58125 37.784374 97.51875 36.940624Q96.45625 36.096874 96.15938 34.45625ZM110.70625 35.971874L110.95625 37.534374Q110.22188 37.690624 109.62813 37.690624Q108.675 37.690624 108.14375 37.39375Q107.62813 37.08125 107.40938 36.596874Q107.19063 36.096874 107.19063 34.51875L107.19063 28.55L105.90938 28.55L105.90938 27.175L107.19063 27.175L107.19063 24.6125L108.94063 23.55L108.94063 27.175L110.70625 27.175L110.70625 28.55L108.94063 28.55L108.94063 34.6125Q108.94063 35.3625 109.03438 35.58125Q109.12813 35.784374 109.33125 35.925Q109.55 36.05 109.94063 36.05Q110.22188 36.05 110.70625 35.971874ZM112.84688 37.55L112.84688 27.175L114.425 27.175L114.425 28.753124Q115.03438 27.64375 115.55 27.3Q116.06563 26.940624 116.675 26.940624Q117.56563 26.940624 118.4875 27.503124L117.87813 29.14375Q117.2375 28.753124 116.59688 28.753124Q116.01875 28.753124 115.55 29.1125Q115.09688 29.45625 114.89375 30.065624Q114.6125 31.003124 114.6125 32.1125L114.6125 37.55L112.84688 37.55ZM119.87813 25.253124L119.87813 23.2375L121.64375 23.2375L121.64375 25.253124L119.87813 25.253124ZM119.87813 37.55L119.87813 27.175L121.64375 27.175L121.64375 37.55L119.87813 37.55ZM125.4875 37.55L123.8625 37.55L123.8625 23.2375L125.6125 23.2375L125.6125 28.346874Q126.7375 26.940624 128.45625 26.940624Q129.40938 26.940624 130.26875 27.33125Q131.12813 27.721874 131.675 28.425Q132.22188 29.1125 132.53438 30.096874Q132.84688 31.08125 132.84688 32.20625Q132.84688 34.878124 131.53438 36.33125Q130.22188 37.784374 128.37813 37.784374Q126.53438 37.784374 125.4875 36.253124L125.4875 37.55ZM125.47188 32.284374Q125.47188 34.14375 125.97188 34.9875Q126.81563 36.33125 128.22188 36.33125Q129.37813 36.33125 130.20625 35.33125Q131.05 34.33125 131.05 32.346874Q131.05 30.315624 130.2375 29.3625Q129.44063 28.39375 128.3 28.39375Q127.14375 28.39375 126.3 29.39375Q125.47188 30.39375 125.47188 32.284374ZM141.65938 37.55L141.65938 36.01875Q140.45625 37.784374 138.37813 37.784374Q137.45625 37.784374 136.65938 37.440624Q135.8625 37.08125 135.47188 36.55Q135.09688 36.01875 134.94063 35.2375Q134.83125 34.721874 134.83125 33.596874L134.83125 27.175L136.58125 27.175L136.58125 32.925Q136.58125 34.3 136.69063 34.784374Q136.8625 35.471874 137.39375 35.878124Q137.94063 36.26875 138.72188 36.26875Q139.51875 36.26875 140.20625 35.8625Q140.90938 35.45625 141.19063 34.76875Q141.4875 34.065624 141.4875 32.7375L141.4875 27.175L143.2375 27.175L143.2375 37.55L141.65938 37.55ZM149.70625 35.971874L149.95625 37.534374Q149.22188 37.690624 148.62813 37.690624Q147.675 37.690624 147.14375 37.39375Q146.62813 37.08125 146.40938 36.596874Q146.19063 36.096874 146.19063 34.51875L146.19063 28.55L144.90938 28.55L144.90938 27.175L146.19063 27.175L146.19063 24.6125L147.94063 23.55L147.94063 27.175L149.70625 27.175L149.70625 28.55L147.94063 28.55L147.94063 34.6125Q147.94063 35.3625 148.03438 35.58125Q148.12813 35.784374 148.33125 35.925Q148.55 36.05 148.94063 36.05Q149.22188 36.05 149.70625 35.971874ZM151.87813 25.253124L151.87813 23.2375L153.64375 23.2375L153.64375 25.253124L151.87813 25.253124ZM151.87813 37.55L151.87813 27.175L153.64375 27.175L153.64375 37.55L151.87813 37.55ZM155.22188 32.3625Q155.22188 29.4875 156.81563 28.096874Q158.15938 26.940624 160.08125 26.940624Q162.22188 26.940624 163.56563 28.346874Q164.925 29.753124 164.925 32.221874Q164.925 34.221874 164.33125 35.378124Q163.7375 36.51875 162.58125 37.159374Q161.44063 37.784374 160.08125 37.784374Q157.89375 37.784374 156.55 36.39375Q155.22188 34.9875 155.22188 32.3625ZM157.01875 32.3625Q157.01875 34.3625 157.87813 35.346874Q158.75313 36.33125 160.08125 36.33125Q161.39375 36.33125 162.25313 35.346874Q163.12813 34.346874 163.12813 32.3Q163.12813 30.378124 162.25313 29.39375Q161.37813 28.39375 160.08125 28.39375Q158.75313 28.39375 157.87813 29.39375Q157.01875 30.378124 157.01875 32.3625ZM166.8625 37.55L166.8625 27.175L168.45625 27.175L168.45625 28.659374Q169.59688 26.940624 171.75313 26.940624Q172.69063 26.940624 173.47188 27.284374Q174.26875 27.6125 174.65938 28.159374Q175.05 28.70625 175.20625 29.45625Q175.3 29.95625 175.3 31.175L175.3 37.55L173.53438 37.55L173.53438 31.2375Q173.53438 30.159374 173.33125 29.628124Q173.12813 29.096874 172.59688 28.784374Q172.08125 28.471874 171.37813 28.471874Q170.25313 28.471874 169.44063 29.190624Q168.62813 29.89375 168.62813 31.878124L168.62813 37.55L166.8625 37.55ZM183.22188 32.3625Q183.22188 29.4875 184.81563 28.096874Q186.15938 26.940624 188.08125 26.940624Q190.22188 26.940624 191.56563 28.346874Q192.925 29.753124 192.925 32.221874Q192.925 34.221874 192.33125 35.378124Q191.7375 36.51875 190.58125 37.159374Q189.44063 37.784374 188.08125 37.784374Q185.89375 37.784374 184.55 36.39375Q183.22188 34.9875 183.22188 32.3625ZM185.01875 32.3625Q185.01875 34.3625 185.87813 35.346874Q186.75313 36.33125 188.08125 36.33125Q189.39375 36.33125 190.25313 35.346874Q191.12813 34.346874 191.12813 32.3Q191.12813 30.378124 190.25313 29.39375Q189.37813 28.39375 188.08125 28.39375Q186.75313 28.39375 185.87813 29.39375Q185.01875 30.378124 185.01875 32.3625ZM197.75313 37.55L193.8 27.175L195.65938 27.175L197.89375 33.39375Q198.25313 34.39375 198.55 35.471874Q198.78438 34.659374 199.20625 33.503124L201.50313 27.175L203.31563 27.175L199.39375 37.55L197.75313 37.55ZM211.97188 34.20625L213.78438 34.440624Q213.3625 36.01875 212.19063 36.909374Q211.03438 37.784374 209.22188 37.784374Q206.95625 37.784374 205.6125 36.39375Q204.28438 34.9875 204.28438 32.45625Q204.28438 29.83125 205.62813 28.39375Q206.97188 26.940624 209.12813 26.940624Q211.20625 26.940624 212.51875 28.3625Q213.84688 29.76875 213.84688 32.346874Q213.84688 32.503124 213.83125 32.815624L206.09688 32.815624Q206.19063 34.51875 207.06563 35.425Q207.94063 36.33125 209.2375 36.33125Q210.20625 36.33125 210.87813 35.83125Q211.56563 35.315624 211.97188 34.20625ZM206.19063 31.3625L211.9875 31.3625Q211.87813 30.065624 211.33125 29.409374Q210.4875 28.39375 209.14375 28.39375Q207.94063 28.39375 207.1125 29.20625Q206.28438 30.003124 206.19063 31.3625ZM215.84688 37.55L215.84688 27.175L217.425 27.175L217.425 28.753124Q218.03438 27.64375 218.55 27.3Q219.06563 26.940624 219.675 26.940624Q220.56563 26.940624 221.4875 27.503124L220.87813 29.14375Q220.2375 28.753124 219.59688 28.753124Q219.01875 28.753124 218.55 29.1125Q218.09688 29.45625 217.89375 30.065624Q217.6125 31.003124 217.6125 32.1125L217.6125 37.55L215.84688 37.55ZM232.70625 35.971874L232.95625 37.534374Q232.22188 37.690624 231.62813 37.690624Q230.675 37.690624 230.14375 37.39375Q229.62813 37.08125 229.40938 36.596874Q229.19063 36.096874 229.19063 34.51875L229.19063 28.55L227.90938 28.55L227.90938 27.175L229.19063 27.175L229.19063 24.6125L230.94063 23.55L230.94063 27.175L232.70625 27.175L232.70625 28.55L230.94063 28.55L230.94063 34.6125Q230.94063 35.3625 231.03438 35.58125Q231.12813 35.784374 231.33125 35.925Q231.55 36.05 231.94063 36.05Q232.22188 36.05 232.70625 35.971874ZM234.87813 25.253124L234.87813 23.2375L236.64375 23.2375L236.64375 25.253124L234.87813 25.253124ZM234.87813 37.55L234.87813 27.175L236.64375 27.175L236.64375 37.55L234.87813 37.55ZM238.8625 37.55L238.8625 27.175L240.44063 27.175L240.44063 28.628124Q240.925 27.878124 241.7375 27.409374Q242.55 26.940624 243.58125 26.940624Q244.7375 26.940624 245.47188 27.425Q246.20625 27.89375 246.51875 28.753124Q247.75313 26.940624 249.72188 26.940624Q251.26875 26.940624 252.09688 27.8Q252.925 28.659374 252.925 30.425L252.925 37.55L251.175 37.55L251.175 31.01875Q251.175 29.95625 251.00313 29.503124Q250.83125 29.034374 250.37813 28.753124Q249.94063 28.471874 249.33125 28.471874Q248.2375 28.471874 247.50313 29.20625Q246.78438 29.925 246.78438 31.51875L246.78438 37.55L245.03438 37.55L245.03438 30.815624Q245.03438 29.64375 244.59688 29.065624Q244.175 28.471874 243.19063 28.471874Q242.45625 28.471874 241.81563 28.8625Q241.19063 29.253124 240.90938 30.003124Q240.62813 30.753124 240.62813 32.175L240.62813 37.55L238.8625 37.55ZM262.97186 34.20625L264.78436 34.440624Q264.3625 36.01875 263.1906 36.909374Q262.03436 37.784374 260.22186 37.784374Q257.95624 37.784374 256.6125 36.39375Q255.28438 34.9875 255.28438 32.45625Q255.28438 29.83125 256.6281 28.39375Q257.97186 26.940624 260.1281 26.940624Q262.20624 26.940624 263.51874 28.3625Q264.84686 29.76875 264.84686 32.346874Q264.84686 32.503124 264.83124 32.815624L257.09686 32.815624Q257.1906 34.51875 258.0656 35.425Q258.9406 36.33125 260.2375 36.33125Q261.20624 36.33125 261.8781 35.83125Q262.5656 35.315624 262.97186 34.20625ZM257.1906 31.3625L262.9875 31.3625Q262.8781 30.065624 262.33124 29.409374Q261.4875 28.39375 260.14374 28.39375Q258.9406 28.39375 258.1125 29.20625Q257.28436 30.003124 257.1906 31.3625Z" fill-rule="nonzero"/></svg>